<?xml version="1.0" standalone="no"?>
<!DOCTYPE svg PUBLIC "-//W3C//DTD SVG 1.1//EN"
 "http://www.w3.org/Graphics/SVG/1.1/DTD/svg11.dtd">
<!-- Created with svg_stack (http://github.com/astraw/svg_stack) -->
<svg xmlns="http://www.w3.org/2000/svg" xmlns:sodipodi="http://sodipodi.sourceforge.net/DTD/sodipodi-0.dtd" xmlns:inkscape="http://www.inkscape.org/namespaces/inkscape" version="1.1" width="1110.50398" height="669.293064">
  <defs><clipPath clipPathUnits="userSpaceOnUse" id="id0:clipPath14">
      <path d="M 0,0 H 226.8 V 227.04 H 0 Z" transform="translate(2.5029182e-5)" id="id0:path14"/>
    </clipPath>
    <clipPath clipPathUnits="userSpaceOnUse" id="id0:clipPath15">
      <path d="M 0,0 H 226.8 V 227.04 H 0 Z" transform="translate(2.5029182e-5)" id="id0:path15"/>
    </clipPath>
    <clipPath clipPathUnits="userSpaceOnUse" id="id0:clipPath16">
      <path d="M 0,0 H 226.8 V 227.04 H 0 Z" transform="translate(2.5029182e-5)" id="id0:path16"/>
    </clipPath>
  </defs>
  <g id="id0:id0" transform="matrix(1.0,0,0,1.0,0.0,0.0)"><sodipodi:namedview id="namedview1" pagecolor="#ffffff" bordercolor="#000000" borderopacity="0.25" inkscape:showpageshadow="2" inkscape:pageopacity="0.0" inkscape:pagecheckerboard="0" inkscape:deskcolor="#d1d1d1">
    <inkscape:page x="0" y="0" inkscape:label="1" id="page1" width="293.75867" height="270.45734" margin="0" bleed="0"/>
  </sodipodi:namedview>
  <g id="id0:g1" inkscape:groupmode="layer" inkscape:label="1">
    <path id="id0:path1" d="m 183.861,164.492 c 0,20.338 -16.513,36.851 -36.851,36.851 H 73.3093 c -20.3382,0 -36.8504,-16.513 -36.8504,-36.851 V 38.3504 C 36.4589,18.0121 52.9711,1.5 73.3093,1.5 H 147.01 c 20.338,0 36.851,16.5121 36.851,36.8504 z" style="fill:#fde8ec;fill-opacity:1;fill-rule:evenodd;stroke:#d51e25;stroke-width:3;stroke-linecap:butt;stroke-linejoin:miter;stroke-miterlimit:10;stroke-dasharray:none;stroke-opacity:1" transform="matrix(1.3333333,0,0,-1.3333333,0,270.45733)"/>
    <path id="id0:path2" d="m 29.7089,163.907 6.75,-2.25 -6.75,-2.25 z" style="fill:#13100f;fill-opacity:1;fill-rule:evenodd;stroke:none" transform="matrix(1.3333333,0,0,-1.3333333,0,270.45733)"/>
    <path id="id0:path3" d="M 8.1125,161.657 H 31.0589" style="fill:none;stroke:#13100f;stroke-width:1.5;stroke-linecap:butt;stroke-linejoin:miter;stroke-miterlimit:10;stroke-dasharray:none;stroke-opacity:1" transform="matrix(1.3333333,0,0,-1.3333333,0,270.45733)"/>
    <path id="id0:path4" d="m 205.457,132.52 6.75,-2.25 -6.75,-2.25 z" style="fill:#13100f;fill-opacity:1;fill-rule:evenodd;stroke:none" transform="matrix(1.3333333,0,0,-1.3333333,0,270.45733)"/>
    <path id="id0:path5" d="m 183.861,130.27 h 22.946" style="fill:none;stroke:#13100f;stroke-width:1.5;stroke-linecap:butt;stroke-linejoin:miter;stroke-miterlimit:10;stroke-dasharray:none;stroke-opacity:1" transform="matrix(1.3333333,0,0,-1.3333333,0,270.45733)"/>
    <path id="id0:path6" d="m 89.3759,50.5217 -2.25,-2.25 2.25,-2.25" style="fill:none;stroke:#13100f;stroke-width:1.5;stroke-linecap:butt;stroke-linejoin:miter;stroke-miterlimit:10;stroke-dasharray:none;stroke-opacity:1" transform="matrix(1.3333333,0,0,-1.3333333,0,270.45733)"/>
    <path id="id0:path7" d="m 130.944,50.5217 2.25,-2.25 -2.25,-2.25" style="fill:none;stroke:#13100f;stroke-width:1.5;stroke-linecap:butt;stroke-linejoin:miter;stroke-miterlimit:10;stroke-dasharray:none;stroke-opacity:1" transform="matrix(1.3333333,0,0,-1.3333333,0,270.45733)"/>
    <path id="id0:path8" d="M 87.1259,48.2717 H 133.194" style="fill:none;stroke:#13100f;stroke-width:1.5;stroke-linecap:butt;stroke-linejoin:miter;stroke-miterlimit:10;stroke-dasharray:none;stroke-opacity:1" transform="matrix(1.3333333,0,0,-1.3333333,0,270.45733)"/>
    <path id="id0:path9" d="m 29.7089,101.545 6.75,-2.2497 -6.75,-2.25 z" style="fill:#13100f;fill-opacity:1;fill-rule:evenodd;stroke:none" transform="matrix(1.3333333,0,0,-1.3333333,0,270.45733)"/>
    <path id="id0:path10" d="M 8.1125,99.2953 H 31.0589" style="fill:none;stroke:#13100f;stroke-width:1.5;stroke-linecap:butt;stroke-linejoin:miter;stroke-miterlimit:10;stroke-dasharray:none;stroke-opacity:1" transform="matrix(1.3333333,0,0,-1.3333333,0,270.45733)"/>
    <path id="id0:path11" d="m 29.7089,39.1831 6.75,-2.25 -6.75,-2.25 z" style="fill:#13100f;fill-opacity:1;fill-rule:evenodd;stroke:none" transform="matrix(1.3333333,0,0,-1.3333333,0,270.45733)"/>
    <path id="id0:path12" d="M 8.1125,36.9331 H 31.0589" style="fill:none;stroke:#13100f;stroke-width:1.5;stroke-linecap:butt;stroke-linejoin:miter;stroke-miterlimit:10;stroke-dasharray:none;stroke-opacity:1" transform="matrix(1.3333333,0,0,-1.3333333,0,270.45733)"/>
    <text id="id0:text12" xml:space="preserve" transform="matrix(1.3333333,0,0,1.3333333,66.084267,73.798667)"><tspan style="font-variant:normal;font-weight:700;font-size:18px;font-family:'Fira Sans';writing-mode:lr-tb;fill:#13100f;fill-opacity:1;fill-rule:nonzero;stroke:none" x="0 8.6219997 13.698 20.375999 28.818001 39.113998 44.369999 54.234001 60.012001 69.372002 78.066002 88.001999 96.624001 103.248 113.76" y="0" sodipodi:role="line" id="id0:tspan12">circular_sector</tspan></text>
    <text id="id0:text13" xml:space="preserve" transform="matrix(1.3333333,0,0,1.3333333,80.712267,104.42)"><tspan style="font-variant:normal;font-weight:normal;font-size:18px;font-family:'Fira Sans';writing-mode:lr-tb;fill:#13100f;fill-opacity:1;fill-rule:nonzero;stroke:none" x="0 9.2159996 15.624 25.434 30.51 38.556 47.916 56.321999 66.132004 75.348 81.575996 92.087997" y="0" sodipodi:role="line" id="id0:tspan13">kreis_sektor</tspan></text>
    <text id="id0:text14" xml:space="preserve" transform="matrix(1.3333333,0,0,1.3333333,57.036267,134.656)"><tspan style="font-variant:normal;font-weight:normal;font-size:18px;font-family:'Fira Sans';writing-mode:lr-tb;fill:#13100f;fill-opacity:1;fill-rule:nonzero;stroke:none" x="0 8.4060001 18.216 24.714001 30.941999 41.453999 47.862 57.312 66.311996 74.916 79.991997 86.400002 94.643997 105.156 110.34 120.132 126.54" y="0" sodipodi:role="line" id="id0:tspan14">settore_circolare</tspan></text>
    <g id="id0:g19">
      <path d="m 184.604,57.9423 -35.708,61.8467 h 71.415 z" style="fill:#008bcb;fill-opacity:1;fill-rule:evenodd;stroke:none" transform="matrix(0.13317788,0,0,-0.13317788,132.09013,32.224683)" clip-path="url(#id0:clipPath14)" id="id0:path17"/>
      <path d="M 42.168,57.9423 6.4605,119.789 h 71.4149 z" style="fill:#008bcb;fill-opacity:1;fill-rule:evenodd;stroke:none" transform="matrix(0.13317788,0,0,-0.13317788,132.09013,32.224683)" clip-path="url(#id0:clipPath15)" id="id0:path18"/>
      <path d="M 113.583,181.637 184.998,57.9423 H 42.168 Z" style="fill:#d2071d;fill-opacity:1;fill-rule:evenodd;stroke:none" transform="matrix(0.13317788,0,0,-0.13317788,132.09013,32.224683)" clip-path="url(#id0:clipPath16)" id="id0:path19"/>
    </g>
    <path id="id0:path20" d="m 134.254,53.8819 c 0,12.7806 -5.077,25.0376 -14.114,34.0748 L 86.0652,53.8819 Z" style="fill:#60c332;fill-opacity:1;fill-rule:evenodd;stroke:none" transform="matrix(1.3333333,0,0,-1.3333333,0,270.45733)"/>
  </g>
</g>
  <g id="id1:id1" transform="matrix(1.0,0,0,1.0,298.75867,87.874338)"><sodipodi:namedview id="namedview1" pagecolor="#ffffff" bordercolor="#000000" borderopacity="0.25" inkscape:showpageshadow="2" inkscape:pageopacity="0.0" inkscape:pagecheckerboard="0" inkscape:deskcolor="#d1d1d1">
    <inkscape:page x="0" y="0" inkscape:label="1" id="page1" width="336.59866" height="94.708664" margin="0" bleed="0"/>
  </sodipodi:namedview>
  <g id="id1:g1" inkscape:groupmode="layer" inkscape:label="1">
    <path id="id1:path1" d="M 239.61,46.9559 250.949,35.5157 239.61,24.4606 V 1.5 H 1.5 v 68.0315 h 238.11 z" style="fill:#ecf9fe;fill-opacity:1;fill-rule:evenodd;stroke:#3e8acf;stroke-width:3;stroke-linecap:butt;stroke-linejoin:miter;stroke-miterlimit:10;stroke-dasharray:none;stroke-opacity:1" transform="matrix(1.3333333,0,0,-1.3333333,0,94.708667)"/>
  </g>
</g>
  <g id="id2:id2" transform="matrix(1.0,0,0,1.0,707.1313250000001,87.874338)"><sodipodi:namedview id="namedview1" pagecolor="#ffffff" bordercolor="#000000" borderopacity="0.25" inkscape:showpageshadow="2" inkscape:pageopacity="0.0" inkscape:pagecheckerboard="0" inkscape:deskcolor="#d1d1d1">
    <inkscape:page x="0" y="0" inkscape:label="1" id="page1" width="336.59866" height="94.708664" margin="0" bleed="0"/>
  </sodipodi:namedview>
  <g id="id2:g1" inkscape:groupmode="layer" inkscape:label="1">
    <path id="id2:path1" d="M 239.61,46.9559 250.949,35.5157 239.61,24.4606 V 1.5 H 1.5 v 68.0315 h 238.11 z" style="fill:#ecf9fe;fill-opacity:1;fill-rule:evenodd;stroke:#3e8acf;stroke-width:3;stroke-linecap:butt;stroke-linejoin:miter;stroke-miterlimit:10;stroke-dasharray:none;stroke-opacity:1" transform="matrix(1.3333333,0,0,-1.3333333,0,94.708667)"/>
  </g>
</g>
  <g id="id3:id3" transform="matrix(1.0,0,0,1.0,0.0,275.45734)"><sodipodi:namedview id="namedview1" pagecolor="#ffffff" bordercolor="#000000" borderopacity="0.25" inkscape:showpageshadow="2" inkscape:pageopacity="0.0" inkscape:pagecheckerboard="0" inkscape:deskcolor="#d1d1d1">
    <inkscape:page x="0" y="0" inkscape:label="1" id="page1" width="336.59866" height="94.708664" margin="0" bleed="0"/>
  </sodipodi:namedview>
  <g id="id3:g1" inkscape:groupmode="layer" inkscape:label="1">
    <path id="id3:path1" d="M 239.61,46.9559 250.949,35.5157 239.61,24.4606 V 1.5 H 1.5 v 68.0315 h 238.11 z" style="fill:#ecf9fe;fill-opacity:1;fill-rule:evenodd;stroke:#3e8acf;stroke-width:3;stroke-linecap:butt;stroke-linejoin:miter;stroke-miterlimit:10;stroke-dasharray:none;stroke-opacity:1" transform="matrix(1.3333333,0,0,-1.3333333,0,94.708667)"/>
  </g>
</g>
  <g id="id4:id4" transform="matrix(1.0,0,0,1.0,341.59866,275.45734)"><sodipodi:namedview id="namedview1" pagecolor="#ffffff" bordercolor="#000000" borderopacity="0.25" inkscape:showpageshadow="2" inkscape:pageopacity="0.0" inkscape:pagecheckerboard="0" inkscape:deskcolor="#d1d1d1">
    <inkscape:page x="0" y="0" inkscape:label="1" id="page1" width="336.59866" height="94.708664" margin="0" bleed="0"/>
  </sodipodi:namedview>
  <g id="id4:g1" inkscape:groupmode="layer" inkscape:label="1">
    <path id="id4:path1" d="M 239.61,46.9559 250.949,35.5157 239.61,24.4606 V 1.5 H 1.5 v 68.0315 h 238.11 z" style="fill:#ecf9fe;fill-opacity:1;fill-rule:evenodd;stroke:#3e8acf;stroke-width:3;stroke-linecap:butt;stroke-linejoin:miter;stroke-miterlimit:10;stroke-dasharray:none;stroke-opacity:1" transform="matrix(1.3333333,0,0,-1.3333333,0,94.708667)"/>
  </g>
</g>
  <g id="id5:id5" transform="matrix(1.0,0,0,1.0,728.55132,275.45734)"><sodipodi:namedview id="namedview1" pagecolor="#ffffff" bordercolor="#000000" borderopacity="0.25" inkscape:showpageshadow="2" inkscape:pageopacity="0.0" inkscape:pagecheckerboard="0" inkscape:deskcolor="#d1d1d1">
    <inkscape:page x="0" y="0" inkscape:label="1" id="page1" width="336.59866" height="94.708664" margin="0" bleed="0"/>
  </sodipodi:namedview>
  <g id="id5:g1" inkscape:groupmode="layer" inkscape:label="1">
    <path id="id5:path1" d="M 239.61,46.9559 250.949,35.5157 239.61,24.4606 V 1.5 H 1.5 v 68.0315 h 238.11 z" style="fill:#ecf9fe;fill-opacity:1;fill-rule:evenodd;stroke:#3e8acf;stroke-width:3;stroke-linecap:butt;stroke-linejoin:miter;stroke-miterlimit:10;stroke-dasharray:none;stroke-opacity:1" transform="matrix(1.3333333,0,0,-1.3333333,0,94.708667)"/>
  </g>
</g>
  <g id="id6:id6" transform="matrix(1.0,0,0,1.0,0.0,375.166004)"><sodipodi:namedview id="namedview1" pagecolor="#ffffff" bordercolor="#000000" borderopacity="0.25" inkscape:showpageshadow="2" inkscape:pageopacity="0.0" inkscape:pagecheckerboard="0" inkscape:deskcolor="#d1d1d1">
    <inkscape:page x="0" y="0" inkscape:label="1" id="page1" width="336.59866" height="94.708664" margin="0" bleed="0"/>
  </sodipodi:namedview>
  <g id="id6:g1" inkscape:groupmode="layer" inkscape:label="1">
    <path id="id6:path1" d="M 239.61,46.9559 250.949,35.5157 239.61,24.4606 V 1.5 H 1.5 v 68.0315 h 238.11 z" style="fill:#ecf9fe;fill-opacity:1;fill-rule:evenodd;stroke:#3e8acf;stroke-width:3;stroke-linecap:butt;stroke-linejoin:miter;stroke-miterlimit:10;stroke-dasharray:none;stroke-opacity:1" transform="matrix(1.3333333,0,0,-1.3333333,0,94.708667)"/>
  </g>
</g>
  <g id="id7:id7" transform="matrix(1.0,0,0,1.0,341.59866,375.166004)"><sodipodi:namedview id="namedview1" pagecolor="#ffffff" bordercolor="#000000" borderopacity="0.25" inkscape:showpageshadow="2" inkscape:pageopacity="0.0" inkscape:pagecheckerboard="0" inkscape:deskcolor="#d1d1d1">
    <inkscape:page x="0" y="0" inkscape:label="1" id="page1" width="336.59866" height="94.708664" margin="0" bleed="0"/>
  </sodipodi:namedview>
  <g id="id7:g1" inkscape:groupmode="layer" inkscape:label="1">
    <path id="id7:path1" d="M 239.61,46.9559 250.949,35.5157 239.61,24.4606 V 1.5 H 1.5 v 68.0315 h 238.11 z" style="fill:#ecf9fe;fill-opacity:1;fill-rule:evenodd;stroke:#3e8acf;stroke-width:3;stroke-linecap:butt;stroke-linejoin:miter;stroke-miterlimit:10;stroke-dasharray:none;stroke-opacity:1" transform="matrix(1.3333333,0,0,-1.3333333,0,94.708667)"/>
  </g>
</g>
  <g id="id8:id8" transform="matrix(1.0,0,0,1.0,728.55132,375.166004)"><sodipodi:namedview id="namedview1" pagecolor="#ffffff" bordercolor="#000000" borderopacity="0.25" inkscape:showpageshadow="2" inkscape:pageopacity="0.0" inkscape:pagecheckerboard="0" inkscape:deskcolor="#d1d1d1">
    <inkscape:page x="0" y="0" inkscape:label="1" id="page1" width="336.59866" height="94.708664" margin="0" bleed="0"/>
  </sodipodi:namedview>
  <g id="id8:g1" inkscape:groupmode="layer" inkscape:label="1">
    <path id="id8:path1" d="M 239.61,46.9559 250.949,35.5157 239.61,24.4606 V 1.5 H 1.5 v 68.0315 h 238.11 z" style="fill:#ecf9fe;fill-opacity:1;fill-rule:evenodd;stroke:#3e8acf;stroke-width:3;stroke-linecap:butt;stroke-linejoin:miter;stroke-miterlimit:10;stroke-dasharray:none;stroke-opacity:1" transform="matrix(1.3333333,0,0,-1.3333333,0,94.708667)"/>
  </g>
</g>
  <g id="id9:id9" transform="matrix(1.0,0,0,1.0,0.0,474.874668)"><sodipodi:namedview id="namedview1" pagecolor="#ffffff" bordercolor="#000000" borderopacity="0.25" inkscape:showpageshadow="2" inkscape:pageopacity="0.0" inkscape:pagecheckerboard="0" inkscape:deskcolor="#d1d1d1">
    <inkscape:page x="0" y="0" inkscape:label="1" id="page1" width="366.83466" height="94.708664" margin="0" bleed="0"/>
  </sodipodi:namedview>
  <g id="id9:g1" inkscape:groupmode="layer" inkscape:label="1">
    <path id="id9:path1" d="M 273.626,1.5 H 1.5" style="fill:none;stroke:#3e8acf;stroke-width:3;stroke-linecap:butt;stroke-linejoin:miter;stroke-miterlimit:10;stroke-dasharray:none;stroke-opacity:1" transform="matrix(1.3333333,0,0,-1.3333333,0,94.708667)"/>
    <path id="id9:path2" d="M 12.8386,52.5236 137.563,69.5315 262.287,52.5236 V 1.5 H 12.8386 Z" style="fill:#ecf9fe;fill-opacity:1;fill-rule:evenodd;stroke:#3e8acf;stroke-width:3;stroke-linecap:butt;stroke-linejoin:miter;stroke-miterlimit:10;stroke-dasharray:none;stroke-opacity:1" transform="matrix(1.3333333,0,0,-1.3333333,0,94.708667)"/>
    <text id="id9:text2" xml:space="preserve" transform="matrix(1.3333333,0,0,1.3333333,306.144,65.5704)"><tspan style="font-variant:normal;font-weight:700;font-size:20px;font-family:'Fira Sans';writing-mode:lr-tb;fill:#3e8acf;fill-opacity:1;fill-rule:nonzero;stroke:none" x="0" y="0" id="id9:tspan2">=</tspan></text>
  </g>
</g>
  <g id="id10:id10" transform="matrix(1.0,0,0,1.0,371.83466,474.874668)"><sodipodi:namedview id="namedview1" pagecolor="#ffffff" bordercolor="#000000" borderopacity="0.25" inkscape:showpageshadow="2" inkscape:pageopacity="0.0" inkscape:pagecheckerboard="0" inkscape:deskcolor="#d1d1d1">
    <inkscape:page x="0" y="0" inkscape:label="1" id="page1" width="366.83466" height="94.708664" margin="0" bleed="0"/>
  </sodipodi:namedview>
  <g id="id10:g1" inkscape:groupmode="layer" inkscape:label="1">
    <path id="id10:path1" d="M 273.626,1.5 H 1.5" style="fill:none;stroke:#3e8acf;stroke-width:3;stroke-linecap:butt;stroke-linejoin:miter;stroke-miterlimit:10;stroke-dasharray:none;stroke-opacity:1" transform="matrix(1.3333333,0,0,-1.3333333,0,94.708667)"/>
    <path id="id10:path2" d="M 12.8386,52.5236 137.563,69.5315 262.287,52.5236 V 1.5 H 12.8386 Z" style="fill:#ecf9fe;fill-opacity:1;fill-rule:evenodd;stroke:#3e8acf;stroke-width:3;stroke-linecap:butt;stroke-linejoin:miter;stroke-miterlimit:10;stroke-dasharray:none;stroke-opacity:1" transform="matrix(1.3333333,0,0,-1.3333333,0,94.708667)"/>
    <text id="id10:text2" xml:space="preserve" transform="matrix(1.3333333,0,0,1.3333333,306.144,65.5704)"><tspan style="font-variant:normal;font-weight:700;font-size:20px;font-family:'Fira Sans';writing-mode:lr-tb;fill:#3e8acf;fill-opacity:1;fill-rule:nonzero;stroke:none" x="0" y="0" id="id10:tspan2">=</tspan></text>
  </g>
</g>
  <g id="id11:id11" transform="matrix(1.0,0,0,1.0,743.66932,474.874668)"><sodipodi:namedview id="namedview1" pagecolor="#ffffff" bordercolor="#000000" borderopacity="0.25" inkscape:showpageshadow="2" inkscape:pageopacity="0.0" inkscape:pagecheckerboard="0" inkscape:deskcolor="#d1d1d1">
    <inkscape:page x="0" y="0" inkscape:label="1" id="page1" width="366.83466" height="94.708664" margin="0" bleed="0"/>
  </sodipodi:namedview>
  <g id="id11:g1" inkscape:groupmode="layer" inkscape:label="1">
    <path id="id11:path1" d="M 273.626,1.5 H 1.5" style="fill:none;stroke:#3e8acf;stroke-width:3;stroke-linecap:butt;stroke-linejoin:miter;stroke-miterlimit:10;stroke-dasharray:none;stroke-opacity:1" transform="matrix(1.3333333,0,0,-1.3333333,0,94.708667)"/>
    <path id="id11:path2" d="M 12.8386,52.5236 137.563,69.5315 262.287,52.5236 V 1.5 H 12.8386 Z" style="fill:#ecf9fe;fill-opacity:1;fill-rule:evenodd;stroke:#3e8acf;stroke-width:3;stroke-linecap:butt;stroke-linejoin:miter;stroke-miterlimit:10;stroke-dasharray:none;stroke-opacity:1" transform="matrix(1.3333333,0,0,-1.3333333,0,94.708667)"/>
    <text id="id11:text2" xml:space="preserve" transform="matrix(1.3333333,0,0,1.3333333,306.144,65.5704)"><tspan style="font-variant:normal;font-weight:700;font-size:20px;font-family:'Fira Sans';writing-mode:lr-tb;fill:#3e8acf;fill-opacity:1;fill-rule:nonzero;stroke:none" x="0" y="0" id="id11:tspan2">=</tspan></text>
  </g>
</g>
  <g id="id12:id12" transform="matrix(1.0,0,0,1.0,0.0,574.583866)"><sodipodi:namedview id="namedview1" pagecolor="#ffffff" bordercolor="#000000" borderopacity="0.25" inkscape:showpageshadow="2" inkscape:pageopacity="0.0" inkscape:pagecheckerboard="0" inkscape:deskcolor="#d1d1d1">
    <inkscape:page x="0" y="0" inkscape:label="1" id="page1" width="366.83466" height="94.708664" margin="0" bleed="0"/>
  </sodipodi:namedview>
  <g id="id12:g1" inkscape:groupmode="layer" inkscape:label="1">
    <path id="id12:path1" d="M 273.626,1.5 H 1.5" style="fill:none;stroke:#3e8acf;stroke-width:3;stroke-linecap:butt;stroke-linejoin:miter;stroke-miterlimit:10;stroke-dasharray:none;stroke-opacity:1" transform="matrix(1.3333333,0,0,-1.3333333,0,94.708667)"/>
    <path id="id12:path2" d="M 12.8386,52.5236 137.563,69.5315 262.287,52.5236 V 1.5 H 12.8386 Z" style="fill:#ecf9fe;fill-opacity:1;fill-rule:evenodd;stroke:#3e8acf;stroke-width:3;stroke-linecap:butt;stroke-linejoin:miter;stroke-miterlimit:10;stroke-dasharray:none;stroke-opacity:1" transform="matrix(1.3333333,0,0,-1.3333333,0,94.708667)"/>
    <text id="id12:text2" xml:space="preserve" transform="matrix(1.3333333,0,0,1.3333333,306.144,65.5704)"><tspan style="font-variant:normal;font-weight:700;font-size:20px;font-family:'Fira Sans';writing-mode:lr-tb;fill:#3e8acf;fill-opacity:1;fill-rule:nonzero;stroke:none" x="0" y="0" id="id12:tspan2">=</tspan></text>
  </g>
</g>
  <g id="id13:id13" transform="matrix(1.0,0,0,1.0,371.83466,574.5833319999999)"><sodipodi:namedview id="namedview1" pagecolor="#ffffff" bordercolor="#000000" borderopacity="0.25" inkscape:showpageshadow="2" inkscape:pageopacity="0.0" inkscape:pagecheckerboard="0" inkscape:deskcolor="#d1d1d1">
    <inkscape:page x="0" y="0" inkscape:label="1" id="page1" width="366.83466" height="94.709732" margin="0" bleed="0"/>
  </sodipodi:namedview>
  <g id="id13:g1" inkscape:groupmode="layer" inkscape:label="1">
    <path id="id13:path1" d="M 273.626,1.50084 H 1.5" style="fill:none;stroke:#d51e25;stroke-width:3;stroke-linecap:butt;stroke-linejoin:miter;stroke-miterlimit:10;stroke-dasharray:none;stroke-opacity:1" transform="matrix(1.3333333,0,0,-1.3333333,0,94.709733)"/>
    <path id="id13:path2" d="m 12.8386,35.5166 c 0,18.7738 55.8871,34.0157 124.7244,34.0157 68.837,0 124.724,-15.2419 124.724,-34.0157 V 18.559 c 0,-4.5241 -1.797,-8.86289 -4.996,-12.06193 -3.199,-3.19903 -7.538,-4.99623 -12.062,-4.99623 H 29.9134 c -9.4302,0 -17.0748,7.64464 -17.0748,17.07476 z" style="fill:#fde8ec;fill-opacity:1;fill-rule:evenodd;stroke:#d51e25;stroke-width:3;stroke-linecap:butt;stroke-linejoin:miter;stroke-miterlimit:10;stroke-dasharray:none;stroke-opacity:1" transform="matrix(1.3333333,0,0,-1.3333333,0,94.709733)"/>
    <path id="id13:path3" d="m 12.8386,35.5166 c 0,18.7738 55.8871,34.0157 124.7244,34.0157 68.837,0 124.724,-15.2419 124.724,-34.0157 V 10.0048 c 0,0 0.001,-8.54952 8.504,-8.50396 0.117,6.2e-4 -8.504,0 -8.504,0 H 12.8386 c 0,0 -8.69648,0.00222 -8.50395,0 8.57405,-0.0986 8.50395,8.50396 8.50395,8.50396 z" style="fill:#fde8ec;fill-opacity:1;fill-rule:evenodd;stroke:#d51e25;stroke-width:3;stroke-linecap:butt;stroke-linejoin:miter;stroke-miterlimit:10;stroke-dasharray:none;stroke-opacity:1" transform="matrix(1.3333333,0,0,-1.3333333,0,94.709733)"/>
    <text id="id13:text3" xml:space="preserve" transform="matrix(1.3333333,0,0,1.3333333,26.067867,65.570267)"><tspan style="font-variant:normal;font-weight:700;font-size:20px;font-family:'Fira Sans';writing-mode:lr-tb;fill:#d51e25;fill-opacity:1;fill-rule:nonzero;stroke:none" x="0 12 23.040001" y="0" sodipodi:role="line" id="id13:tspan3">def</tspan></text>
  </g>
</g>
  <g id="id14:id14" transform="matrix(1.0,0,0,1.0,743.66932,574.5833319999999)"><sodipodi:namedview id="namedview1" pagecolor="#ffffff" bordercolor="#000000" borderopacity="0.25" inkscape:showpageshadow="2" inkscape:pageopacity="0.0" inkscape:pagecheckerboard="0" inkscape:deskcolor="#d1d1d1">
    <inkscape:page x="0" y="0" inkscape:label="1" id="page1" width="366.83466" height="94.709732" margin="0" bleed="0"/>
  </sodipodi:namedview>
  <g id="id14:g1" inkscape:groupmode="layer" inkscape:label="1">
    <path id="id14:path1" d="M 273.626,1.50084 H 1.5" style="fill:none;stroke:#d51e25;stroke-width:3;stroke-linecap:butt;stroke-linejoin:miter;stroke-miterlimit:10;stroke-dasharray:none;stroke-opacity:1" transform="matrix(1.3333333,0,0,-1.3333333,0,94.709733)"/>
    <path id="id14:path2" d="m 12.8386,35.5166 c 0,18.7738 55.8871,34.0157 124.7244,34.0157 68.837,0 124.724,-15.2419 124.724,-34.0157 V 18.559 c 0,-4.5241 -1.797,-8.86289 -4.996,-12.06193 -3.199,-3.19903 -7.538,-4.99623 -12.062,-4.99623 H 29.9134 c -9.4302,0 -17.0748,7.64464 -17.0748,17.07476 z" style="fill:#fde8ec;fill-opacity:1;fill-rule:evenodd;stroke:#d51e25;stroke-width:3;stroke-linecap:butt;stroke-linejoin:miter;stroke-miterlimit:10;stroke-dasharray:none;stroke-opacity:1" transform="matrix(1.3333333,0,0,-1.3333333,0,94.709733)"/>
    <path id="id14:path3" d="m 12.8386,35.5166 c 0,18.7738 55.8871,34.0157 124.7244,34.0157 68.837,0 124.724,-15.2419 124.724,-34.0157 V 10.0048 c 0,0 0.001,-8.54952 8.504,-8.50396 0.117,6.2e-4 -8.504,0 -8.504,0 H 12.8386 c 0,0 -8.69648,0.00222 -8.50395,0 8.57405,-0.0986 8.50395,8.50396 8.50395,8.50396 z" style="fill:#fde8ec;fill-opacity:1;fill-rule:evenodd;stroke:#d51e25;stroke-width:3;stroke-linecap:butt;stroke-linejoin:miter;stroke-miterlimit:10;stroke-dasharray:none;stroke-opacity:1" transform="matrix(1.3333333,0,0,-1.3333333,0,94.709733)"/>
    <text id="id14:text3" xml:space="preserve" transform="matrix(1.3333333,0,0,1.3333333,26.067867,65.570267)"><tspan style="font-variant:normal;font-weight:700;font-size:20px;font-family:'Fira Sans';writing-mode:lr-tb;fill:#d51e25;fill-opacity:1;fill-rule:nonzero;stroke:none" x="0 12 23.040001" y="0" sodipodi:role="line" id="id14:tspan3">def</tspan></text>
  </g>
</g>
</svg>
