<?xml version="1.0" standalone="no"?>
<!DOCTYPE svg PUBLIC "-//W3C//DTD SVG 1.1//EN"
 "http://www.w3.org/Graphics/SVG/1.1/DTD/svg11.dtd">
<!-- Created with svg_stack (http://github.com/astraw/svg_stack) -->
<svg xmlns="http://www.w3.org/2000/svg" xmlns:sodipodi="http://sodipodi.sourceforge.net/DTD/sodipodi-0.dtd" xmlns:inkscape="http://www.inkscape.org/namespaces/inkscape" version="1.1" width="925.1173" height="185.41733">
  <defs/>
  <g id="id0:id0" transform="matrix(1.0,0,0,1.0,0.0,0.0)"><sodipodi:namedview id="namedview1" pagecolor="#ffffff" bordercolor="#000000" borderopacity="0.25" inkscape:showpageshadow="2" inkscape:pageopacity="0.0" inkscape:pagecheckerboard="0" inkscape:deskcolor="#d1d1d1">
    <inkscape:page x="0" y="0" inkscape:label="1" id="page1" width="460.05865" height="185.41733" margin="0" bleed="0"/>
  </sodipodi:namedview>
  <g id="id0:g1" inkscape:groupmode="layer" inkscape:label="1">
    <path id="id0:path1" d="m 308.585,103.547 c 0,18.774 -15.242,34.016 -34.016,34.016 H 70.4747 c -18.7738,0 -34.0158,-15.242 -34.0158,-34.016 V 35.5157 C 36.4589,16.7419 51.7009,1.5 70.4747,1.5 H 274.569 c 18.774,0 34.016,15.2419 34.016,34.0157 z" style="fill:#fde8ec;fill-opacity:1;fill-rule:evenodd;stroke:#d51e25;stroke-width:3;stroke-linecap:butt;stroke-linejoin:miter;stroke-miterlimit:10;stroke-dasharray:none;stroke-opacity:1" transform="matrix(1.3333333,0,0,-1.3333333,0,185.41733)"/>
    <path id="id0:path2" d="m 29.7089,100.128 6.75,-2.25 -6.75,-2.25 z" style="fill:#13100f;fill-opacity:1;fill-rule:evenodd;stroke:none" transform="matrix(1.3333333,0,0,-1.3333333,0,185.41733)"/>
    <path id="id0:path3" d="M 8.1125,97.878 H 31.0589" style="fill:none;stroke:#13100f;stroke-width:1.5;stroke-linecap:butt;stroke-linejoin:miter;stroke-miterlimit:10;stroke-dasharray:none;stroke-opacity:1" transform="matrix(1.3333333,0,0,-1.3333333,0,185.41733)"/>
    <path id="id0:path4" d="m 29.7089,37.7657 6.75,-2.25 -6.75,-2.25 z" style="fill:#13100f;fill-opacity:1;fill-rule:evenodd;stroke:none" transform="matrix(1.3333333,0,0,-1.3333333,0,185.41733)"/>
    <path id="id0:path5" d="M 8.1125,35.5157 H 31.0589" style="fill:none;stroke:#13100f;stroke-width:1.5;stroke-linecap:butt;stroke-linejoin:miter;stroke-miterlimit:10;stroke-dasharray:none;stroke-opacity:1" transform="matrix(1.3333333,0,0,-1.3333333,0,185.41733)"/>
    <path id="id0:path6" d="m 330.181,68.9469 6.75,-2.25 -6.75,-2.25 z" style="fill:#13100f;fill-opacity:1;fill-rule:evenodd;stroke:none" transform="matrix(1.3333333,0,0,-1.3333333,0,185.41733)"/>
    <path id="id0:path7" d="m 308.585,66.6969 h 22.946" style="fill:none;stroke:#13100f;stroke-width:1.5;stroke-linecap:butt;stroke-linejoin:miter;stroke-miterlimit:10;stroke-dasharray:none;stroke-opacity:1" transform="matrix(1.3333333,0,0,-1.3333333,0,185.41733)"/>
  </g>
</g>
  <g id="id1:id1" transform="matrix(1.0,0,0,1.0,465.05865,0.0)"><sodipodi:namedview id="namedview1" pagecolor="#ffffff" bordercolor="#000000" borderopacity="0.25" inkscape:showpageshadow="2" inkscape:pageopacity="0.0" inkscape:pagecheckerboard="0" inkscape:deskcolor="#d1d1d1">
    <inkscape:page x="0" y="0" inkscape:label="1" id="page1" width="460.05865" height="185.41733" margin="0" bleed="0"/>
  </sodipodi:namedview>
  <g id="id1:g1" inkscape:groupmode="layer" inkscape:label="1">
    <path id="id1:path1" d="m 308.585,103.547 c 0,18.774 -15.242,34.016 -34.016,34.016 H 70.4747 c -18.7738,0 -34.0158,-15.242 -34.0158,-34.016 V 35.5157 C 36.4589,16.7419 51.7009,1.5 70.4747,1.5 H 274.569 c 18.774,0 34.016,15.2419 34.016,34.0157 z" style="fill:#fde8ec;fill-opacity:1;fill-rule:evenodd;stroke:#d51e25;stroke-width:3;stroke-linecap:butt;stroke-linejoin:miter;stroke-miterlimit:10;stroke-dasharray:none;stroke-opacity:1" transform="matrix(1.3333333,0,0,-1.3333333,0,185.41733)"/>
    <path id="id1:path2" d="m 29.7089,100.128 6.75,-2.25 -6.75,-2.25 z" style="fill:#13100f;fill-opacity:1;fill-rule:evenodd;stroke:none" transform="matrix(1.3333333,0,0,-1.3333333,0,185.41733)"/>
    <path id="id1:path3" d="M 8.1125,97.878 H 31.0589" style="fill:none;stroke:#13100f;stroke-width:1.5;stroke-linecap:butt;stroke-linejoin:miter;stroke-miterlimit:10;stroke-dasharray:none;stroke-opacity:1" transform="matrix(1.3333333,0,0,-1.3333333,0,185.41733)"/>
    <path id="id1:path4" d="m 29.7089,37.7657 6.75,-2.25 -6.75,-2.25 z" style="fill:#13100f;fill-opacity:1;fill-rule:evenodd;stroke:none" transform="matrix(1.3333333,0,0,-1.3333333,0,185.41733)"/>
    <path id="id1:path5" d="M 8.1125,35.5157 H 31.0589" style="fill:none;stroke:#13100f;stroke-width:1.5;stroke-linecap:butt;stroke-linejoin:miter;stroke-miterlimit:10;stroke-dasharray:none;stroke-opacity:1" transform="matrix(1.3333333,0,0,-1.3333333,0,185.41733)"/>
    <path id="id1:path6" d="m 330.181,68.9469 6.75,-2.25 -6.75,-2.25 z" style="fill:#13100f;fill-opacity:1;fill-rule:evenodd;stroke:none" transform="matrix(1.3333333,0,0,-1.3333333,0,185.41733)"/>
    <path id="id1:path7" d="m 308.585,66.6969 h 22.946" style="fill:none;stroke:#13100f;stroke-width:1.5;stroke-linecap:butt;stroke-linejoin:miter;stroke-miterlimit:10;stroke-dasharray:none;stroke-opacity:1" transform="matrix(1.3333333,0,0,-1.3333333,0,185.41733)"/>
  </g>
</g>
</svg>
