<?xml version="1.0" encoding="UTF-8" standalone="no"?>
<!-- Created with Inkscape (http://www.inkscape.org/) -->

<svg
   version="1.1"
   id="svg1"
   width="248.40533"
   height="185.41733"
   viewBox="0 0 248.40533 185.41733"
   sodipodi:docname="PyTamaro-Card-overlay.pdf"
   xmlns:inkscape="http://www.inkscape.org/namespaces/inkscape"
   xmlns:sodipodi="http://sodipodi.sourceforge.net/DTD/sodipodi-0.dtd"
   xmlns="http://www.w3.org/2000/svg"
   xmlns:svg="http://www.w3.org/2000/svg">
  <defs
     id="defs1">
    <clipPath
       clipPathUnits="userSpaceOnUse"
       id="clipPath9">
      <path
         d="M 0,0 H 226.8 V 227.04 H 0 Z"
         id="path9" />
    </clipPath>
    <clipPath
       clipPathUnits="userSpaceOnUse"
       id="clipPath10">
      <path
         d="M 0,0 H 226.8 V 227.04 H 0 Z"
         id="path10" />
    </clipPath>
    <clipPath
       clipPathUnits="userSpaceOnUse"
       id="clipPath11">
      <path
         d="M 0,0 H 226.8 V 227.04 H 0 Z"
         id="path11" />
    </clipPath>
  </defs>
  <sodipodi:namedview
     id="namedview1"
     pagecolor="#ffffff"
     bordercolor="#000000"
     borderopacity="0.25"
     inkscape:showpageshadow="2"
     inkscape:pageopacity="0.0"
     inkscape:pagecheckerboard="0"
     inkscape:deskcolor="#d1d1d1">
    <inkscape:page
       x="0"
       y="0"
       inkscape:label="1"
       id="page1"
       width="248.40533"
       height="185.41733"
       margin="0"
       bleed="0" />
  </sodipodi:namedview>
  <g
     id="g1"
     inkscape:groupmode="layer"
     inkscape:label="1">
    <path
       id="path1"
       d="m 149.845,109.217 c 0,15.644 -12.702,28.346 -28.347,28.346 H 64.8054 c -15.6448,0 -28.3465,-12.702 -28.3465,-28.346 V 29.8465 C 36.4589,14.2016 49.1606,1.5 64.8054,1.5 h 56.6926 c 15.645,0 28.347,12.7016 28.347,28.3465 z"
       style="fill:#fde8ec;fill-opacity:1;fill-rule:evenodd;stroke:#d51e25;stroke-width:3;stroke-linecap:butt;stroke-linejoin:miter;stroke-miterlimit:10;stroke-dasharray:none;stroke-opacity:1"
       transform="matrix(1.3333333,0,0,-1.3333333,0,185.41733)" />
    <path
       id="path2"
       d="m 29.7089,100.128 6.75,-2.25 -6.75,-2.25 z"
       style="fill:#13100f;fill-opacity:1;fill-rule:evenodd;stroke:none"
       transform="matrix(1.3333333,0,0,-1.3333333,0,185.41733)" />
    <path
       id="path3"
       d="M 8.1125,97.878 H 31.0589"
       style="fill:none;stroke:#13100f;stroke-width:1.5;stroke-linecap:butt;stroke-linejoin:miter;stroke-miterlimit:10;stroke-dasharray:none;stroke-opacity:1"
       transform="matrix(1.3333333,0,0,-1.3333333,0,185.41733)" />
    <path
       id="path4"
       d="m 171.441,68.9469 6.75,-2.25 -6.75,-2.25 z"
       style="fill:#13100f;fill-opacity:1;fill-rule:evenodd;stroke:none"
       transform="matrix(1.3333333,0,0,-1.3333333,0,185.41733)" />
    <path
       id="path5"
       d="m 149.845,66.6969 h 22.946"
       style="fill:none;stroke:#13100f;stroke-width:1.5;stroke-linecap:butt;stroke-linejoin:miter;stroke-miterlimit:10;stroke-dasharray:none;stroke-opacity:1"
       transform="matrix(1.3333333,0,0,-1.3333333,0,185.41733)" />
    <path
       id="path6"
       d="m 29.7089,37.7657 6.75,-2.25 -6.75,-2.25 z"
       style="fill:#13100f;fill-opacity:1;fill-rule:evenodd;stroke:none"
       transform="matrix(1.3333333,0,0,-1.3333333,0,185.41733)" />
    <path
       id="path7"
       d="M 8.1125,35.5157 H 31.0589"
       style="fill:none;stroke:#13100f;stroke-width:1.5;stroke-linecap:butt;stroke-linejoin:miter;stroke-miterlimit:10;stroke-dasharray:none;stroke-opacity:1"
       transform="matrix(1.3333333,0,0,-1.3333333,0,185.41733)" />
    <text
       id="text7"
       xml:space="preserve"
       transform="matrix(1.3333333,0,0,1.3333333,83.222533,73.811067)"><tspan
         style="font-variant:normal;font-weight:700;font-size:18px;font-family:'Fira Sans';writing-mode:lr-tb;fill:#13100f;fill-opacity:1;fill-rule:nonzero;stroke:none"
         x="0 10.368 19.458 29.393999 36.612 41.868 51.462002"
         y="0"
         sodipodi:role="line"
         id="tspan7">overlay</tspan></text>
    <text
       id="text8"
       xml:space="preserve"
       transform="matrix(1.3333333,0,0,1.3333333,58.658533,104.4312)"><tspan
         style="font-variant:normal;font-weight:normal;font-size:18px;font-family:'Fira Sans';writing-mode:lr-tb;fill:#13100f;fill-opacity:1;fill-rule:nonzero;stroke:none"
         x="0 10.476 20.285999 30.978001 40.787998 47.736 52.919998 62.532001 71.603996 81.414001 87.821999"
         y="0"
         sodipodi:role="line"
         id="tspan8">ueberlagere</tspan></text>
    <text
       id="text9"
       xml:space="preserve"
       transform="matrix(1.3333333,0,0,1.3333333,64.058533,134.66747)"><tspan
         style="font-variant:normal;font-weight:normal;font-size:18px;font-family:'Fira Sans';writing-mode:lr-tb;fill:#13100f;fill-opacity:1;fill-rule:nonzero;stroke:none"
         x="0 8.4060001 18.846001 27.702 34.02 43.812 54.504002 65.195999 75.708 86.255997"
         y="0"
         sodipodi:role="line"
         id="tspan9">sovrapponi</tspan></text>
    <g
       id="g14">
      <path
         d="m 184.604,57.9423 -35.708,61.8467 h 71.415 z"
         style="fill:#008bcb;fill-opacity:1;fill-rule:evenodd;stroke:none"
         transform="matrix(0.13317788,0,0,-0.13317788,109.1004,32.236683)"
         clip-path="url(#clipPath9)"
         id="path12" />
      <path
         d="M 42.168,57.9423 6.4605,119.789 h 71.4149 z"
         style="fill:#008bcb;fill-opacity:1;fill-rule:evenodd;stroke:none"
         transform="matrix(0.13317788,0,0,-0.13317788,109.1004,32.236683)"
         clip-path="url(#clipPath10)"
         id="path13" />
      <path
         d="M 113.583,181.637 184.998,57.9423 H 42.168 Z"
         style="fill:#d2071d;fill-opacity:1;fill-rule:evenodd;stroke:none"
         transform="matrix(0.13317788,0,0,-0.13317788,109.1004,32.236683)"
         clip-path="url(#clipPath11)"
         id="path14" />
    </g>
  </g>
</svg>
