<?xml version="1.0" encoding="UTF-8" standalone="no"?>
<!-- Created with Inkscape (http://www.inkscape.org/) -->

<svg
   version="1.1"
   id="svg1"
   width="248.40533"
   height="351.716"
   viewBox="0 0 248.40533 351.716"
   sodipodi:docname="PyTamaro-Card-text.pdf"
   xmlns:inkscape="http://www.inkscape.org/namespaces/inkscape"
   xmlns:sodipodi="http://sodipodi.sourceforge.net/DTD/sodipodi-0.dtd"
   xmlns="http://www.w3.org/2000/svg"
   xmlns:svg="http://www.w3.org/2000/svg">
  <defs
     id="defs1">
    <clipPath
       clipPathUnits="userSpaceOnUse"
       id="clipPath15">
      <path
         d="M 0,0 H 226.8 V 227.04 H 0 Z"
         id="path15" />
    </clipPath>
    <clipPath
       clipPathUnits="userSpaceOnUse"
       id="clipPath16">
      <path
         d="M 0,0 H 226.8 V 227.04 H 0 Z"
         id="path16" />
    </clipPath>
    <clipPath
       clipPathUnits="userSpaceOnUse"
       id="clipPath17">
      <path
         d="M 0,0 H 226.8 V 227.04 H 0 Z"
         id="path17" />
    </clipPath>
  </defs>
  <sodipodi:namedview
     id="namedview1"
     pagecolor="#ffffff"
     bordercolor="#000000"
     borderopacity="0.25"
     inkscape:showpageshadow="2"
     inkscape:pageopacity="0.0"
     inkscape:pagecheckerboard="0"
     inkscape:deskcolor="#d1d1d1">
    <inkscape:page
       x="0"
       y="0"
       inkscape:label="1"
       id="page1"
       width="248.40533"
       height="351.716"
       margin="0"
       bleed="0" />
  </sodipodi:namedview>
  <g
     id="g1"
     inkscape:groupmode="layer"
     inkscape:label="1">
    <path
       id="path1"
       d="m 149.845,233.941 c 0,15.645 -12.702,28.346 -28.347,28.346 H 64.8054 c -15.6448,0 -28.3465,-12.701 -28.3465,-28.346 V 29.8465 C 36.4589,14.2016 49.1606,1.5 64.8054,1.5 h 56.6926 c 15.645,0 28.347,12.7016 28.347,28.3465 z"
       style="fill:#fde8ec;fill-opacity:1;fill-rule:evenodd;stroke:#d51e25;stroke-width:3;stroke-linecap:butt;stroke-linejoin:miter;stroke-miterlimit:10;stroke-dasharray:none;stroke-opacity:1"
       transform="matrix(1.3333333,0,0,-1.3333333,0,351.716)" />
    <path
       id="path2"
       d="m 29.7089,224.852 6.75,-2.25 -6.75,-2.25 z"
       style="fill:#13100f;fill-opacity:1;fill-rule:evenodd;stroke:none"
       transform="matrix(1.3333333,0,0,-1.3333333,0,351.716)" />
    <path
       id="path3"
       d="M 8.1125,222.602 H 31.0589"
       style="fill:none;stroke:#13100f;stroke-width:1.5;stroke-linecap:butt;stroke-linejoin:miter;stroke-miterlimit:10;stroke-dasharray:none;stroke-opacity:1"
       transform="matrix(1.3333333,0,0,-1.3333333,0,351.716)" />
    <path
       id="path4"
       d="m 171.441,193.671 6.75,-2.25 -6.75,-2.25 z"
       style="fill:#13100f;fill-opacity:1;fill-rule:evenodd;stroke:none"
       transform="matrix(1.3333333,0,0,-1.3333333,0,351.716)" />
    <path
       id="path5"
       d="m 149.845,191.421 h 22.946"
       style="fill:none;stroke:#13100f;stroke-width:1.5;stroke-linecap:butt;stroke-linejoin:miter;stroke-miterlimit:10;stroke-dasharray:none;stroke-opacity:1"
       transform="matrix(1.3333333,0,0,-1.3333333,0,351.716)" />
    <path
       id="path6"
       d="m 29.7089,162.49 6.75,-2.25 -6.75,-2.25 z"
       style="fill:#13100f;fill-opacity:1;fill-rule:evenodd;stroke:none"
       transform="matrix(1.3333333,0,0,-1.3333333,0,351.716)" />
    <path
       id="path7"
       d="M 8.1125,160.24 H 31.0589"
       style="fill:none;stroke:#13100f;stroke-width:1.5;stroke-linecap:butt;stroke-linejoin:miter;stroke-miterlimit:10;stroke-dasharray:none;stroke-opacity:1"
       transform="matrix(1.3333333,0,0,-1.3333333,0,351.716)" />
    <path
       id="path8"
       d="m 29.7089,100.128 6.75,-2.25 -6.75,-2.25 z"
       style="fill:#13100f;fill-opacity:1;fill-rule:evenodd;stroke:none"
       transform="matrix(1.3333333,0,0,-1.3333333,0,351.716)" />
    <path
       id="path9"
       d="M 8.1125,97.878 H 31.0589"
       style="fill:none;stroke:#13100f;stroke-width:1.5;stroke-linecap:butt;stroke-linejoin:miter;stroke-miterlimit:10;stroke-dasharray:none;stroke-opacity:1"
       transform="matrix(1.3333333,0,0,-1.3333333,0,351.716)" />
    <path
       id="path10"
       d="m 29.7089,37.7657 6.75,-2.25 -6.75,-2.25 z"
       style="fill:#13100f;fill-opacity:1;fill-rule:evenodd;stroke:none"
       transform="matrix(1.3333333,0,0,-1.3333333,0,351.716)" />
    <path
       id="path11"
       d="M 8.1125,35.5157 H 31.0589"
       style="fill:none;stroke:#13100f;stroke-width:1.5;stroke-linecap:butt;stroke-linejoin:miter;stroke-miterlimit:10;stroke-dasharray:none;stroke-opacity:1"
       transform="matrix(1.3333333,0,0,-1.3333333,0,351.716)" />
    <text
       id="text11"
       xml:space="preserve"
       transform="matrix(1.3333333,0,0,1.3333333,102.08653,73.810667)"><tspan
         style="font-variant:normal;font-weight:700;font-size:18px;font-family:'Fira Sans';writing-mode:lr-tb;fill:#13100f;fill-opacity:1;fill-rule:nonzero;stroke:none"
         x="0 6.6240001 16.326 25.542"
         y="0"
         sodipodi:role="line"
         id="tspan11">text</tspan></text>
    <path
       id="path12"
       d="M 12.668295,-4.9463359 H 4.7229828 l -1.78125,4.94531246 H 0.36360781 L 7.6057953,-18.950242 h 2.1796875 l 7.2539062,18.94921856 h -2.566406 z m -7.1835934,-2.0625 H 11.930014 L 8.6956391,-15.868211 Z m 0,0"
       style="fill:#60c332;fill-opacity:1;fill-rule:nonzero;stroke:none"
       aria-label="A"
       transform="matrix(1.3333333,0,0,1.3333333,90.542533,211.16933)" />
    <path
       id="path13"
       d="M 2.2025901,-0.00102344 V -18.950242 h 6.1875 c 2.0624999,0 3.6093749,0.427734 4.6406249,1.277344 1.037109,0.84375 1.558594,2.103515 1.558594,3.773437 0,0.884766 -0.254883,1.664063 -0.761719,2.34375 -0.500976,0.679688 -1.183594,1.207031 -2.050781,1.5820313 1.022461,0.2900391 1.831055,0.8378906 2.425781,1.640625 0.600586,0.796875 0.902344,1.7519531 0.902344,2.859375 0,1.7050781 -0.556641,3.0439453 -1.664063,4.0195313 -1.101562,0.96972653 -2.657226,1.45312496 -4.6640622,1.45312496 z M 4.6986838,-8.8603984 v 6.8203125 h 4.125 c 1.163086,0 2.0800782,-0.2988282 2.7539062,-0.9023438 0.670899,-0.609375 1.007813,-1.4414062 1.007813,-2.4960937 0,-2.2792969 -1.242188,-3.421875 -3.7265629,-3.421875 z m 0,-2.0156246 h 3.7734375 c 1.0927735,0 1.9687497,-0.272461 2.6249997,-0.820313 0.65625,-0.544922 0.984375,-1.283203 0.984375,-2.214844 0,-1.045898 -0.304687,-1.804687 -0.914062,-2.273437 -0.609375,-0.47461 -1.5351564,-0.714844 -2.7773439,-0.714844 H 4.6986838 Z m 28.0341802,4.8632808 c -0.234375,2.0009766 -0.972657,3.5478516 -2.214844,4.640625 -1.242188,1.08691408 -2.900391,1.62890626 -4.96875,1.62890626 -2.235352,0 -4.028321,-0.79980468 -5.378906,-2.40234376 -1.353516,-1.6083984 -2.027344,-3.7558594 -2.027344,-6.4453125 v -1.8281248 c 0,-1.757813 0.310547,-3.304688 0.9375,-4.640625 0.632812,-1.335938 1.526367,-2.361328 2.683594,-3.082031 1.154296,-0.717774 2.490234,-1.078125 4.007812,-1.078125 2.015625,0 3.626953,0.5625 4.839844,1.6875 1.21875,1.125 1.924804,2.680664 2.121094,4.664062 h -2.507813 c -0.219727,-1.505859 -0.691406,-2.595703 -1.417969,-3.269531 -0.720703,-0.679688 -1.731445,-1.019531 -3.035156,-1.019531 -1.59375,0 -2.844727,0.591796 -3.75,1.769531 -0.908203,1.180664 -1.359375,2.859375 -1.359375,5.039062 v 1.8398441 c 0,2.0566406 0.427734,3.6914062 1.289063,4.9101562 0.858398,1.2128906 2.05664,1.8164063 3.597656,1.8164063 1.388672,0 2.455078,-0.3105469 3.199219,-0.9375 0.74121,-0.6328125 1.233398,-1.7285157 1.476562,-3.2929688 z m 0,0"
       style="fill:#60c332;fill-opacity:1;fill-rule:nonzero;stroke:none"
       aria-label="BC"
       transform="matrix(1.3333333,0,0,1.3333333,113.72728,211.16933)" />
    <text
       id="text13"
       xml:space="preserve"
       transform="matrix(1.3333333,0,0,1.3333333,103.01053,104.43067)"><tspan
         style="font-variant:normal;font-weight:normal;font-size:18px;font-family:'Fira Sans';writing-mode:lr-tb;fill:#13100f;fill-opacity:1;fill-rule:nonzero;stroke:none"
         x="0"
         y="0"
         id="tspan13">t</tspan></text>
    <text
       id="text14"
       xml:space="preserve"
       transform="matrix(1.3333333,0,0,1.3333333,111.31453,104.43067)"><tspan
         style="font-variant:normal;font-weight:normal;font-size:18px;font-family:'Fira Sans';writing-mode:lr-tb;fill:#13100f;fill-opacity:1;fill-rule:nonzero;stroke:none"
         x="0 9.6479998 18.378"
         y="0"
         sodipodi:role="line"
         id="tspan14">ext</tspan></text>
    <text
       id="text15"
       xml:space="preserve"
       transform="matrix(1.3333333,0,0,1.3333333,97.490533,134.66667)"><tspan
         style="font-variant:normal;font-weight:normal;font-size:18px;font-family:'Fira Sans';writing-mode:lr-tb;fill:#13100f;fill-opacity:1;fill-rule:nonzero;stroke:none"
         x="0 6.2280002 16.038 24.444 30.672001"
         y="0"
         sodipodi:role="line"
         id="tspan15">testo</tspan></text>
    <g
       id="g20">
      <path
         d="m 184.604,57.9423 -35.708,61.8467 h 71.415 z"
         style="fill:#008bcb;fill-opacity:1;fill-rule:evenodd;stroke:none"
         transform="matrix(0.13317788,0,0,-0.13317788,109.1004,32.236683)"
         clip-path="url(#clipPath15)"
         id="path18" />
      <path
         d="M 42.168,57.9423 6.4605,119.789 h 71.4149 z"
         style="fill:#008bcb;fill-opacity:1;fill-rule:evenodd;stroke:none"
         transform="matrix(0.13317788,0,0,-0.13317788,109.1004,32.236683)"
         clip-path="url(#clipPath16)"
         id="path19" />
      <path
         d="M 113.583,181.637 184.998,57.9423 H 42.168 Z"
         style="fill:#d2071d;fill-opacity:1;fill-rule:evenodd;stroke:none"
         transform="matrix(0.13317788,0,0,-0.13317788,109.1004,32.236683)"
         clip-path="url(#clipPath17)"
         id="path20" />
    </g>
  </g>
</svg>
