<?xml version="1.0" encoding="UTF-8" standalone="no"?>
<!-- Created with Inkscape (http://www.inkscape.org/) -->

<svg
   version="1.1"
   id="svg1"
   width="248.40533"
   height="351.716"
   viewBox="0 0 248.40533 351.716"
   sodipodi:docname="PyTamaro-Card-triangle.pdf"
   xmlns:inkscape="http://www.inkscape.org/namespaces/inkscape"
   xmlns:sodipodi="http://sodipodi.sourceforge.net/DTD/sodipodi-0.dtd"
   xmlns="http://www.w3.org/2000/svg"
   xmlns:svg="http://www.w3.org/2000/svg">
  <defs
     id="defs1">
    <clipPath
       clipPathUnits="userSpaceOnUse"
       id="clipPath19">
      <path
         d="M 0,0 H 226.8 V 227.04 H 0 Z"
         id="path19" />
    </clipPath>
    <clipPath
       clipPathUnits="userSpaceOnUse"
       id="clipPath20">
      <path
         d="M 0,0 H 226.8 V 227.04 H 0 Z"
         id="path20" />
    </clipPath>
    <clipPath
       clipPathUnits="userSpaceOnUse"
       id="clipPath21">
      <path
         d="M 0,0 H 226.8 V 227.04 H 0 Z"
         id="path21" />
    </clipPath>
  </defs>
  <sodipodi:namedview
     id="namedview1"
     pagecolor="#ffffff"
     bordercolor="#000000"
     borderopacity="0.25"
     inkscape:showpageshadow="2"
     inkscape:pageopacity="0.0"
     inkscape:pagecheckerboard="0"
     inkscape:deskcolor="#d1d1d1">
    <inkscape:page
       x="0"
       y="0"
       inkscape:label="1"
       id="page1"
       width="248.40533"
       height="351.716"
       margin="0"
       bleed="0" />
  </sodipodi:namedview>
  <g
     id="g1"
     inkscape:groupmode="layer"
     inkscape:label="1">
    <path
       id="path1"
       d="m 149.845,233.941 c 0,15.645 -12.702,28.346 -28.347,28.346 H 64.8054 c -15.6448,0 -28.3465,-12.701 -28.3465,-28.346 V 29.8465 C 36.4589,14.2016 49.1606,1.5 64.8054,1.5 h 56.6926 c 15.645,0 28.347,12.7016 28.347,28.3465 z"
       style="fill:#fde8ec;fill-opacity:1;fill-rule:evenodd;stroke:#d51e25;stroke-width:3;stroke-linecap:butt;stroke-linejoin:miter;stroke-miterlimit:10;stroke-dasharray:none;stroke-opacity:1"
       transform="matrix(1.3333333,0,0,-1.3333333,0,351.716)" />
    <path
       id="path2"
       d="m 29.7089,224.852 6.75,-2.25 -6.75,-2.25 z"
       style="fill:#13100f;fill-opacity:1;fill-rule:evenodd;stroke:none"
       transform="matrix(1.3333333,0,0,-1.3333333,0,351.716)" />
    <path
       id="path3"
       d="M 8.1125,222.602 H 31.0589"
       style="fill:none;stroke:#13100f;stroke-width:1.5;stroke-linecap:butt;stroke-linejoin:miter;stroke-miterlimit:10;stroke-dasharray:none;stroke-opacity:1"
       transform="matrix(1.3333333,0,0,-1.3333333,0,351.716)" />
    <path
       id="path4"
       d="m 171.441,193.671 6.75,-2.25 -6.75,-2.25 z"
       style="fill:#13100f;fill-opacity:1;fill-rule:evenodd;stroke:none"
       transform="matrix(1.3333333,0,0,-1.3333333,0,351.716)" />
    <path
       id="path5"
       d="m 149.845,191.421 h 22.946"
       style="fill:none;stroke:#13100f;stroke-width:1.5;stroke-linecap:butt;stroke-linejoin:miter;stroke-miterlimit:10;stroke-dasharray:none;stroke-opacity:1"
       transform="matrix(1.3333333,0,0,-1.3333333,0,351.716)" />
    <path
       id="path6"
       d="m 76.62,94.4587 -2.25,-2.25 2.25,-2.25"
       style="fill:none;stroke:#13100f;stroke-width:1.5;stroke-linecap:butt;stroke-linejoin:miter;stroke-miterlimit:10;stroke-dasharray:none;stroke-opacity:1"
       transform="matrix(1.3333333,0,0,-1.3333333,0,351.716)" />
    <path
       id="path7"
       d="m 115.353,94.4587 2.25,-2.25 -2.25,-2.25"
       style="fill:none;stroke:#13100f;stroke-width:1.5;stroke-linecap:butt;stroke-linejoin:miter;stroke-miterlimit:10;stroke-dasharray:none;stroke-opacity:1"
       transform="matrix(1.3333333,0,0,-1.3333333,0,351.716)" />
    <path
       id="path8"
       d="m 74.37,92.2087 h 43.233"
       style="fill:none;stroke:#13100f;stroke-width:1.5;stroke-linecap:butt;stroke-linejoin:miter;stroke-miterlimit:10;stroke-dasharray:none;stroke-opacity:1"
       transform="matrix(1.3333333,0,0,-1.3333333,0,351.716)" />
    <path
       id="path9"
       d="m 69.8074,106.062 v -3.182 h 3.182"
       style="fill:none;stroke:#13100f;stroke-width:1.5;stroke-linecap:butt;stroke-linejoin:miter;stroke-miterlimit:10;stroke-dasharray:none;stroke-opacity:1"
       transform="matrix(1.3333333,0,0,-1.3333333,0,351.716)" />
    <path
       id="path10"
       d="m 93.4718,129.726 h 3.182 v -3.182"
       style="fill:none;stroke:#13100f;stroke-width:1.5;stroke-linecap:butt;stroke-linejoin:miter;stroke-miterlimit:10;stroke-dasharray:none;stroke-opacity:1"
       transform="matrix(1.3333333,0,0,-1.3333333,0,351.716)" />
    <path
       id="path11"
       d="m 69.8074,102.88 c 4.0053,4.005 22.8411,22.841 26.8464,26.846"
       style="fill:none;stroke:#13100f;stroke-width:1.5;stroke-linecap:butt;stroke-linejoin:miter;stroke-miterlimit:10;stroke-dasharray:none;stroke-opacity:1"
       transform="matrix(1.3333333,0,0,-1.3333333,0,351.716)" />
    <path
       id="path12"
       d="m 29.7089,162.49 6.75,-2.25 -6.75,-2.25 z"
       style="fill:#13100f;fill-opacity:1;fill-rule:evenodd;stroke:none"
       transform="matrix(1.3333333,0,0,-1.3333333,0,351.716)" />
    <path
       id="path13"
       d="M 8.1125,160.24 H 31.0589"
       style="fill:none;stroke:#13100f;stroke-width:1.5;stroke-linecap:butt;stroke-linejoin:miter;stroke-miterlimit:10;stroke-dasharray:none;stroke-opacity:1"
       transform="matrix(1.3333333,0,0,-1.3333333,0,351.716)" />
    <path
       id="path14"
       d="m 29.7089,100.128 6.75,-2.25 -6.75,-2.25 z"
       style="fill:#13100f;fill-opacity:1;fill-rule:evenodd;stroke:none"
       transform="matrix(1.3333333,0,0,-1.3333333,0,351.716)" />
    <path
       id="path15"
       d="M 8.1125,97.878 H 31.0589"
       style="fill:none;stroke:#13100f;stroke-width:1.5;stroke-linecap:butt;stroke-linejoin:miter;stroke-miterlimit:10;stroke-dasharray:none;stroke-opacity:1"
       transform="matrix(1.3333333,0,0,-1.3333333,0,351.716)" />
    <path
       id="path16"
       d="m 29.7089,37.7657 6.75,-2.25 -6.75,-2.25 z"
       style="fill:#13100f;fill-opacity:1;fill-rule:evenodd;stroke:none"
       transform="matrix(1.3333333,0,0,-1.3333333,0,351.716)" />
    <path
       id="path17"
       d="M 8.1125,35.5157 H 31.0589"
       style="fill:none;stroke:#13100f;stroke-width:1.5;stroke-linecap:butt;stroke-linejoin:miter;stroke-miterlimit:10;stroke-dasharray:none;stroke-opacity:1"
       transform="matrix(1.3333333,0,0,-1.3333333,0,351.716)" />
    <text
       id="text17"
       xml:space="preserve"
       transform="matrix(1.3333333,0,0,1.3333333,80.678533,73.810667)"><tspan
         style="font-variant:normal;font-weight:700;font-size:18px;font-family:'Fira Sans';writing-mode:lr-tb;fill:#13100f;fill-opacity:1;fill-rule:nonzero;stroke:none"
         x="0 6.948 14.166 19.242001 29.106001 39.492001 49.41 54.666"
         y="0"
         sodipodi:role="line"
         id="tspan17">triangle</tspan></text>
    <text
       id="text18"
       xml:space="preserve"
       transform="matrix(1.3333333,0,0,1.3333333,83.954533,104.43067)"><tspan
         style="font-variant:normal;font-weight:normal;font-size:18px;font-family:'Fira Sans';writing-mode:lr-tb;fill:#13100f;fill-opacity:1;fill-rule:nonzero;stroke:none"
         x="0 10.764 17.172001 26.982 32.057999 41.868 50.472"
         y="0"
         sodipodi:role="line"
         id="tspan18">dreieck</tspan></text>
    <text
       id="text19"
       xml:space="preserve"
       transform="matrix(1.3333333,0,0,1.3333333,75.518533,134.66667)"><tspan
         style="font-variant:normal;font-weight:normal;font-size:18px;font-family:'Fira Sans';writing-mode:lr-tb;fill:#13100f;fill-opacity:1;fill-rule:nonzero;stroke:none"
         x="0 6.4980001 13.446 18.521999 28.313999 38.862 47.933998 58.445999 63.630001"
         y="0"
         sodipodi:role="line"
         id="tspan19">triangolo</tspan></text>
    <g
       id="g24">
      <path
         d="m 184.604,57.9423 -35.708,61.8467 h 71.415 z"
         style="fill:#008bcb;fill-opacity:1;fill-rule:evenodd;stroke:none"
         transform="matrix(0.13317788,0,0,-0.13317788,109.1004,32.236683)"
         clip-path="url(#clipPath19)"
         id="path22" />
      <path
         d="M 42.168,57.9423 6.4605,119.789 h 71.4149 z"
         style="fill:#008bcb;fill-opacity:1;fill-rule:evenodd;stroke:none"
         transform="matrix(0.13317788,0,0,-0.13317788,109.1004,32.236683)"
         clip-path="url(#clipPath20)"
         id="path23" />
      <path
         d="M 113.583,181.637 184.998,57.9423 H 42.168 Z"
         style="fill:#d2071d;fill-opacity:1;fill-rule:evenodd;stroke:none"
         transform="matrix(0.13317788,0,0,-0.13317788,109.1004,32.236683)"
         clip-path="url(#clipPath21)"
         id="path24" />
    </g>
    <path
       id="path25"
       d="m 73.3093,97.878 h 45.3547 l -17.008,28.346 z"
       style="fill:#60c332;fill-opacity:1;fill-rule:evenodd;stroke:none"
       transform="matrix(1.3333333,0,0,-1.3333333,0,351.716)" />
  </g>
</svg>
