<?xml version="1.0" encoding="UTF-8" standalone="no"?>
<!DOCTYPE svg PUBLIC "-//W3C//DTD SVG 1.1//EN" "http://www.w3.org/Graphics/SVG/1.1/DTD/svg11.dtd">
<svg width="100%" height="100%" viewBox="0 0 1371 841" version="1.1" xmlns="http://www.w3.org/2000/svg" xmlns:xlink="http://www.w3.org/1999/xlink" xml:space="preserve" xmlns:serif="http://www.serif.com/" style="fill-rule:evenodd;clip-rule:evenodd;stroke-linejoin:round;stroke-miterlimit:1.5;">
    <g id="Card-Name-function-use3" serif:id="Card/Name/function-use3">
        <path d="M1181.29,7.081C1200.09,7.081 1218.11,14.547 1231.4,27.837C1244.69,41.127 1252.16,59.153 1252.16,77.947C1252.16,234.186 1252.16,606.749 1252.16,762.987C1252.16,781.782 1244.69,799.807 1231.4,813.097C1218.11,826.387 1200.09,833.853 1181.29,833.853C977.711,833.853 392.746,833.853 189.165,833.853C170.371,833.853 152.345,826.387 139.055,813.097C125.765,799.807 118.299,781.782 118.299,762.987C118.299,606.749 118.299,234.186 118.299,77.947C118.299,59.153 125.765,41.127 139.055,27.837C152.345,14.547 170.371,7.081 189.165,7.081C392.746,7.081 977.711,7.081 1181.29,7.081Z" style="fill:rgb(253,234,235);stroke:rgb(212,32,39);stroke-width:12.5px;"/>
        <g id="BentArrow">
            <rect x="0.189" y="168.892" width="89.764" height="7.087"/>
            <path d="M118.299,172.436L89.953,181.884L89.953,162.987L118.299,172.436Z"/>
        </g>
        <g id="Arrow">
            <circle cx="3.732" cy="432.278" r="3.543"/>
            <rect x="0.189" y="428.735" width="89.764" height="7.087"/>
            <path d="M118.299,432.278L89.953,441.727L89.953,422.829L118.299,432.278Z"/>
        </g>
        <g id="Arrow1" serif:id="Arrow">
            <circle cx="7.276" cy="692.121" r="3.543"/>
            <rect x="3.732" y="688.577" width="89.764" height="7.087"/>
            <path d="M121.843,692.121L93.496,701.569L93.496,682.672L121.843,692.121Z"/>
        </g>
        <g id="BentArrow1" serif:id="BentArrow">
            <rect x="1252.16" y="298.814" width="89.764" height="7.087"/>
            <path d="M1370.27,302.357L1341.92,311.806L1341.92,292.908L1370.27,302.357Z"/>
        </g>
    </g>
</svg>
