<?xml version="1.0" encoding="UTF-8" standalone="no"?>
<!DOCTYPE svg PUBLIC "-//W3C//DTD SVG 1.1//EN" "http://www.w3.org/Graphics/SVG/1.1/DTD/svg11.dtd">
<svg width="100%" height="100%" viewBox="0 0 534 486" version="1.1" xmlns="http://www.w3.org/2000/svg" xmlns:xlink="http://www.w3.org/1999/xlink" xml:space="preserve" xmlns:serif="http://www.serif.com/" style="fill-rule:evenodd;clip-rule:evenodd;stroke-linejoin:round;stroke-miterlimit:1.5;">
    <g id="Card-Constant-black" serif:id="Card/Constant/black">
        <path d="M479.661,195.485L526.906,243.152L479.661,289.215L479.661,479.373L7.22,479.373L7.22,6.932L479.661,6.932L479.661,195.485Z" style="fill:rgb(230,245,253);stroke:rgb(17,139,202);stroke-width:12.5px;"/>
        <g transform="matrix(75,0,0,75,334.566,231.341)">
        </g>
        <text x="149.466px" y="231.341px" style="font-family:'FiraSans-Bold', 'Fira Sans', sans-serif;font-weight:700;font-size:75px;">bl<tspan x="216.141px " y="231.341px ">a</tspan>ck</text>
        <g transform="matrix(75,0,0,75,376.753,327.029)">
        </g>
        <text x="107.278px" y="327.029px" style="font-family:'FiraSans-Regular', 'Fira Sans', sans-serif;font-size:75px;">schw<tspan x="274.978px 315.778px 343.978px " y="327.029px 327.029px 327.029px ">arz</tspan></text>
        <g transform="matrix(75,0,0,75,323.428,421.517)">
        </g>
        <text x="168.103px" y="421.517px" style="font-family:'FiraSans-Regular', 'Fira Sans', sans-serif;font-size:75px;">ner<tspan x="279.628px " y="421.517px ">o</tspan></text>
        <g id="PyTamaro-Logo" serif:id="PyTamaro Logo">
            <rect x="196.147" y="6.932" width="94.488" height="94.488" style="fill:none;"/>
            <g>
                <path d="M243.436,25.239L274.122,78.388L212.751,78.388L243.436,25.239Z" style="fill:rgb(212,32,39);"/>
                <path d="M274.111,78.388L258.768,51.814L289.454,51.814L274.111,78.388Z" style="fill:rgb(17,139,202);"/>
                <path d="M212.751,78.388L197.408,51.814L228.093,51.814L212.751,78.388Z" style="fill:rgb(17,139,202);"/>
            </g>
        </g>
    </g>
</svg>
