<?xml version="1.0" encoding="UTF-8" standalone="no"?>
<!DOCTYPE svg PUBLIC "-//W3C//DTD SVG 1.1//EN" "http://www.w3.org/Graphics/SVG/1.1/DTD/svg11.dtd">
<svg width="100%" height="100%" viewBox="0 0 628 485" version="1.1" xmlns="http://www.w3.org/2000/svg" xmlns:xlink="http://www.w3.org/1999/xlink" xml:space="preserve" xmlns:serif="http://www.serif.com/" style="fill-rule:evenodd;clip-rule:evenodd;stroke-linejoin:round;stroke-miterlimit:1.5;">
    <g id="Card-Constant-center" serif:id="Card/Constant/center">
        <path d="M574.016,195.247L621.26,242.914L574.016,288.977L574.016,478.711L7.087,478.711L7.087,6.27L574.016,6.27L574.016,195.247Z" style="fill:rgb(230,245,253);stroke:rgb(17,139,202);stroke-width:12.5px;"/>
        <g transform="matrix(75,0,0,75,398.214,230.68)">
        </g>
        <text x="180.039px" y="230.68px" style="font-family:'FiraSans-Bold', 'Fira Sans', sans-serif;font-weight:700;font-size:75px;">c<tspan x="214.464px " y="230.68px ">e</tspan>nt<tspan x="326.739px " y="230.68px ">e</tspan>r</text>
        <g transform="matrix(75,0,0,75,378.789,326.368)">
        </g>
        <text x="199.464px" y="326.368px" style="font-family:'FiraSans-Regular', 'Fira Sans', sans-serif;font-size:75px;">mitt<tspan x="337.914px " y="326.368px ">e</tspan></text>
        <g transform="matrix(75,0,0,75,401.251,420.856)">
        </g>
        <text x="184.501px" y="420.856px" style="font-family:'FiraSans-Regular', 'Fira Sans', sans-serif;font-size:75px;">c<tspan x="218.851px " y="420.856px ">e</tspan>ntr<tspan x="357.451px " y="420.856px ">o</tspan></text>
        <g id="PyTamaro-Logo" serif:id="PyTamaro Logo">
            <rect x="243.357" y="6.27" width="94.488" height="94.488" style="fill:none;"/>
            <g>
                <path d="M290.647,24.577L321.333,77.727L259.961,77.727L290.647,24.577Z" style="fill:rgb(212,32,39);"/>
                <path d="M321.321,77.727L305.978,51.152L336.664,51.152L321.321,77.727Z" style="fill:rgb(17,139,202);"/>
                <path d="M259.961,77.727L244.618,51.152L275.304,51.152L259.961,77.727Z" style="fill:rgb(17,139,202);"/>
            </g>
        </g>
    </g>
</svg>
