<?xml version="1.0" encoding="UTF-8" standalone="no"?>
<!DOCTYPE svg PUBLIC "-//W3C//DTD SVG 1.1//EN" "http://www.w3.org/Graphics/SVG/1.1/DTD/svg11.dtd">
<svg width="100%" height="100%" viewBox="0 0 534 485" version="1.1" xmlns="http://www.w3.org/2000/svg" xmlns:xlink="http://www.w3.org/1999/xlink" xml:space="preserve" xmlns:serif="http://www.serif.com/" style="fill-rule:evenodd;clip-rule:evenodd;stroke-linejoin:round;stroke-miterlimit:1.5;">
    <g id="Card-Constant-cyan" serif:id="Card/Constant/cyan">
        <path d="M479.661,194.823L526.906,242.491L479.661,288.554L479.661,478.711L7.22,478.711L7.22,6.27L479.661,6.27L479.661,194.823Z" style="fill:rgb(230,245,253);stroke:rgb(17,139,202);stroke-width:12.5px;"/>
        <g transform="matrix(75,0,0,75,320.766,230.68)">
        </g>
        <text x="163.266px" y="230.68px" style="font-family:'FiraSans-Bold', 'Fira Sans', sans-serif;font-weight:700;font-size:75px;">cy<tspan x="236.391px " y="230.68px ">a</tspan>n</text>
        <g transform="matrix(75,0,0,75,320.166,326.368)">
        </g>
        <text x="163.866px" y="326.368px" style="font-family:'FiraSans-Regular', 'Fira Sans', sans-serif;font-size:75px;">cy<tspan x="235.416px " y="326.368px ">a</tspan>n</text>
        <g transform="matrix(75,0,0,75,338.541,420.856)">
        </g>
        <text x="152.991px" y="420.856px" style="font-family:'FiraSans-Regular', 'Fira Sans', sans-serif;font-size:75px;">ciano</text>
        <g id="PyTamaro-Logo" serif:id="PyTamaro Logo">
            <rect x="196.147" y="6.27" width="94.488" height="94.488" style="fill:none;"/>
            <g>
                <path d="M243.436,24.577L274.122,77.727L212.751,77.727L243.436,24.577Z" style="fill:rgb(212,32,39);"/>
                <path d="M274.111,77.727L258.768,51.152L289.454,51.152L274.111,77.727Z" style="fill:rgb(17,139,202);"/>
                <path d="M212.751,77.727L197.408,51.152L228.093,51.152L212.751,77.727Z" style="fill:rgb(17,139,202);"/>
            </g>
        </g>
    </g>
</svg>
