<?xml version="1.0" encoding="UTF-8" standalone="no"?>
<!DOCTYPE svg PUBLIC "-//W3C//DTD SVG 1.1//EN" "http://www.w3.org/Graphics/SVG/1.1/DTD/svg11.dtd">
<svg width="100%" height="100%" viewBox="0 0 627 486" version="1.1" xmlns="http://www.w3.org/2000/svg" xmlns:xlink="http://www.w3.org/1999/xlink" xml:space="preserve" xmlns:serif="http://www.serif.com/" style="fill-rule:evenodd;clip-rule:evenodd;stroke-linejoin:round;stroke-miterlimit:1.5;">
    <g id="Card-Constant-top_left" serif:id="Card/Constant/top_left">
        <path d="M573.354,195.585L620.598,243.253L573.354,289.316L573.354,479.05L6.425,479.05L6.425,6.609L573.354,6.609L573.354,195.585Z" style="fill:rgb(230,245,253);stroke:rgb(17,139,202);stroke-width:12.5px;"/>
        <g transform="matrix(75,0,0,75,424.402,231.018)">
        </g>
        <text x="152.527px" y="231.018px" style="font-family:'FiraSans-Bold', 'Fira Sans', sans-serif;font-weight:700;font-size:75px;">t<tspan x="180.127px 223.927px 267.202px 305.452px 327.352px " y="231.018px 231.018px 231.018px 231.018px 231.018px ">op_le</tspan>ft</text>
        <g transform="matrix(75,0,0,75,474.24,326.706)">
        </g>
        <text x="102.69px" y="326.706px" style="font-family:'FiraSans-Regular', 'Fira Sans', sans-serif;font-size:75px;">oben_<tspan x="314.115px " y="326.706px ">l</tspan>ink<tspan x="439.215px " y="326.706px ">s</tspan></text>
        <g transform="matrix(75,0,0,75,502.102,421.195)">
        </g>
        <text x="82.327px" y="421.195px" style="font-family:'FiraSans-Regular', 'Fira Sans', sans-serif;font-size:75px;">a<tspan x="122.377px 144.352px 170.302px 212.602px " y="421.195px 421.195px 421.195px 421.195px ">lto_</tspan>sinistr<tspan x="461.302px " y="421.195px ">a</tspan></text>
        <g id="PyTamaro-Logo" serif:id="PyTamaro Logo">
            <rect x="242.696" y="6.609" width="94.488" height="94.488" style="fill:none;"/>
            <g>
                <path d="M289.985,24.916L320.671,78.066L259.299,78.066L289.985,24.916Z" style="fill:rgb(212,32,39);"/>
                <path d="M320.66,78.066L305.317,51.491L336.003,51.491L320.66,78.066Z" style="fill:rgb(17,139,202);"/>
                <path d="M259.299,78.066L243.956,51.491L274.642,51.491L259.299,78.066Z" style="fill:rgb(17,139,202);"/>
            </g>
        </g>
    </g>
</svg>
