<?xml version="1.0" encoding="UTF-8" standalone="no"?>
<!DOCTYPE svg PUBLIC "-//W3C//DTD SVG 1.1//EN" "http://www.w3.org/Graphics/SVG/1.1/DTD/svg11.dtd">
<svg width="100%" height="100%" viewBox="0 0 520 297" version="1.1" xmlns="http://www.w3.org/2000/svg" xmlns:xlink="http://www.w3.org/1999/xlink" xml:space="preserve" xmlns:serif="http://www.serif.com/" style="fill-rule:evenodd;clip-rule:evenodd;stroke-linejoin:round;stroke-miterlimit:1.5;">
    <g id="Card-Operator-plus" serif:id="Card/Operator/plus">
        <path d="M401.795,148.428C401.795,70.204 338.287,6.695 260.063,6.695C181.839,6.695 118.331,70.204 118.331,148.428C118.331,226.652 181.839,290.16 260.063,290.16C338.287,290.16 401.795,226.652 401.795,148.428Z" style="fill:rgb(234,252,241);stroke:rgb(0,138,53);stroke-width:12.5px;"/>
        <g id="BentArrow">
            <circle cx="92.937" cy="6.695" r="3.543"/>
            <rect x="0.22" y="3.152" width="92.717" height="7.087"/>
            <path d="M132.209,35.02L127.653,40.448L90.731,9.467L95.286,4.038L132.209,35.02Z"/>
            <path d="M151.497,55.416L123.646,44.593L135.709,30.047L151.497,55.416Z"/>
        </g>
        <g id="BentArrow1" serif:id="BentArrow">
            <circle cx="92.937" cy="289.127" r="3.543"/>
            <rect x="0.22" y="285.583" width="92.717" height="7.087"/>
            <path d="M132.209,260.802L127.653,255.374L90.731,286.355L95.286,291.784L132.209,260.802Z"/>
            <path d="M151.497,240.406L123.646,251.229L135.709,265.775L151.497,240.406Z"/>
        </g>
        <g id="Arrow">
            <rect x="401.795" y="144.884" width="89.764" height="7.087"/>
            <path d="M519.906,148.428L491.559,157.877L491.559,138.979L519.906,148.428Z"/>
        </g>
        <g transform="matrix(100,0,0,100,286.613,179.728)">
        </g>
        <text x="233.513px" y="179.728px" style="font-family:'FiraSans-Bold', 'Fira Sans', sans-serif;font-weight:700;font-size:100px;">+</text>
        <g id="Python-Logo" serif:id="Python Logo">
            <g>
                <path id="path1948" d="M259.641,18.116C256.719,18.129 253.928,18.379 251.473,18.813C244.24,20.091 242.926,22.766 242.926,27.698L242.926,34.213L260.02,34.213L260.02,36.384L236.511,36.384C231.544,36.384 227.194,39.37 225.833,45.05C224.264,51.561 224.194,55.624 225.833,62.422C227.048,67.483 229.95,71.089 234.918,71.089L240.795,71.089L240.795,63.279C240.795,57.637 245.676,52.661 251.473,52.661L268.546,52.661C273.299,52.661 277.093,48.748 277.093,43.975L277.093,27.698C277.093,23.066 273.185,19.586 268.546,18.813C265.61,18.324 262.563,18.102 259.641,18.116ZM250.397,23.355C252.163,23.355 253.605,24.821 253.605,26.622C253.605,28.418 252.163,29.87 250.397,29.87C248.625,29.87 247.19,28.418 247.19,26.622C247.19,24.821 248.625,23.355 250.397,23.355Z" style="fill:url(#_Linear1);fill-rule:nonzero;"/>
                <path id="path1950" d="M279.224,36.384L279.224,43.975C279.224,49.859 274.235,54.812 268.546,54.812L251.473,54.812C246.796,54.812 242.926,58.815 242.926,63.498L242.926,79.775C242.926,84.407 246.955,87.132 251.473,88.461C256.884,90.052 262.072,90.339 268.546,88.461C272.849,87.215 277.093,84.707 277.093,79.775L277.093,73.26L260.02,73.26L260.02,71.089L285.639,71.089C290.607,71.089 292.458,67.623 294.186,62.422C295.971,57.068 295.895,51.919 294.186,45.05C292.958,40.105 290.613,36.384 285.639,36.384L279.224,36.384ZM269.622,77.603C271.394,77.603 272.829,79.055 272.829,80.85C272.829,82.652 271.394,84.118 269.622,84.118C267.856,84.118 266.415,82.652 266.415,80.85C266.415,79.055 267.856,77.603 269.622,77.603Z" style="fill:url(#_Linear2);fill-rule:nonzero;"/>
            </g>
            <rect x="212.819" y="6.695" width="94.488" height="94.488" style="fill:none;"/>
        </g>
    </g>
    <defs>
        <linearGradient id="_Linear1" x1="0" y1="0" x2="1" y2="0" gradientUnits="userSpaceOnUse" gradientTransform="matrix(39.0958,33.9615,-33.9615,39.0958,224.63,18.1152)"><stop offset="0" style="stop-color:rgb(90,159,212);stop-opacity:1"/><stop offset="1" style="stop-color:rgb(48,105,152);stop-opacity:1"/></linearGradient>
        <linearGradient id="_Linear2" x1="0" y1="0" x2="1" y2="0" gradientUnits="userSpaceOnUse" gradientTransform="matrix(-13.9611,-19.9433,19.9433,-13.9611,269.211,80.3027)"><stop offset="0" style="stop-color:rgb(255,212,59);stop-opacity:1"/><stop offset="1" style="stop-color:rgb(255,232,115);stop-opacity:1"/></linearGradient>
    </defs>
</svg>
