<?xml version="1.0" encoding="UTF-8" standalone="no"?>
<!DOCTYPE svg PUBLIC "-//W3C//DTD SVG 1.1//EN" "http://www.w3.org/Graphics/SVG/1.1/DTD/svg11.dtd">
<svg width="100%" height="100%" viewBox="0 0 520 297" version="1.1" xmlns="http://www.w3.org/2000/svg" xmlns:xlink="http://www.w3.org/1999/xlink" xml:space="preserve" xmlns:serif="http://www.serif.com/" style="fill-rule:evenodd;clip-rule:evenodd;stroke-linejoin:round;stroke-miterlimit:1.5;">
    <g id="Card-Operator-and" serif:id="Card/Operator/and">
        <path d="M401.677,148.428C401.677,70.204 338.169,6.695 259.945,6.695C181.721,6.695 118.213,70.204 118.213,148.428C118.213,226.652 181.721,290.16 259.945,290.16C338.169,290.16 401.677,226.652 401.677,148.428Z" style="fill:rgb(234,252,241);stroke:rgb(0,138,53);stroke-width:12.5px;"/>
        <g id="BentArrow">
            <circle cx="92.819" cy="6.695" r="3.543"/>
            <rect x="0.102" y="3.152" width="92.717" height="7.087"/>
            <path d="M132.091,35.02L127.535,40.448L90.613,9.467L95.168,4.038L132.091,35.02Z"/>
            <path d="M151.378,55.416L123.528,44.593L135.591,30.047L151.378,55.416Z"/>
        </g>
        <g id="BentArrow1" serif:id="BentArrow">
            <circle cx="92.819" cy="289.127" r="3.543"/>
            <rect x="0.102" y="285.583" width="92.717" height="7.087"/>
            <path d="M132.091,260.802L127.535,255.374L90.613,286.355L95.168,291.784L132.091,260.802Z"/>
            <path d="M151.378,240.406L123.528,251.229L135.591,265.775L151.378,240.406Z"/>
        </g>
        <g id="Arrow">
            <rect x="401.677" y="144.884" width="89.764" height="7.087"/>
            <path d="M519.787,148.428L491.441,157.877L491.441,138.979L519.787,148.428Z"/>
        </g>
        <g transform="matrix(83.3333,0,0,83.3333,331.82,179.728)">
        </g>
        <text x="188.07px" y="179.728px" style="font-family:'FiraSans-Bold', 'Fira Sans', sans-serif;font-weight:700;font-size:83.333px;">and</text>
        <g id="Python-Logo" serif:id="Python Logo">
            <g>
                <path id="path1948" d="M259.523,18.116C256.601,18.129 253.81,18.379 251.355,18.813C244.122,20.091 242.808,22.766 242.808,27.698L242.808,34.213L259.901,34.213L259.901,36.384L236.393,36.384C231.426,36.384 227.076,39.37 225.715,45.05C224.146,51.561 224.076,55.624 225.715,62.422C226.93,67.483 229.832,71.089 234.8,71.089L240.677,71.089L240.677,63.279C240.677,57.637 245.558,52.661 251.355,52.661L268.428,52.661C273.181,52.661 276.975,48.748 276.975,43.975L276.975,27.698C276.975,23.066 273.067,19.586 268.428,18.813C265.492,18.324 262.445,18.102 259.523,18.116ZM250.279,23.355C252.045,23.355 253.487,24.821 253.487,26.622C253.487,28.418 252.045,29.87 250.279,29.87C248.507,29.87 247.072,28.418 247.072,26.622C247.072,24.821 248.507,23.355 250.279,23.355Z" style="fill:url(#_Linear1);fill-rule:nonzero;"/>
                <path id="path1950" d="M279.106,36.384L279.106,43.975C279.106,49.859 274.117,54.812 268.428,54.812L251.355,54.812C246.678,54.812 242.808,58.815 242.808,63.498L242.808,79.775C242.808,84.407 246.836,87.132 251.355,88.461C256.766,90.052 261.954,90.339 268.428,88.461C272.731,87.215 276.975,84.707 276.975,79.775L276.975,73.26L259.901,73.26L259.901,71.089L285.521,71.089C290.489,71.089 292.34,67.623 294.068,62.422C295.852,57.068 295.776,51.919 294.068,45.05C292.84,40.105 290.495,36.384 285.521,36.384L279.106,36.384ZM269.504,77.603C271.276,77.603 272.711,79.055 272.711,80.85C272.711,82.652 271.276,84.118 269.504,84.118C267.738,84.118 266.296,82.652 266.296,80.85C266.296,79.055 267.738,77.603 269.504,77.603Z" style="fill:url(#_Linear2);fill-rule:nonzero;"/>
            </g>
            <rect x="212.701" y="6.695" width="94.488" height="94.488" style="fill:none;"/>
        </g>
    </g>
    <defs>
        <linearGradient id="_Linear1" x1="0" y1="0" x2="1" y2="0" gradientUnits="userSpaceOnUse" gradientTransform="matrix(39.0958,33.9615,-33.9615,39.0958,224.512,18.1152)"><stop offset="0" style="stop-color:rgb(90,159,212);stop-opacity:1"/><stop offset="1" style="stop-color:rgb(48,105,152);stop-opacity:1"/></linearGradient>
        <linearGradient id="_Linear2" x1="0" y1="0" x2="1" y2="0" gradientUnits="userSpaceOnUse" gradientTransform="matrix(-13.9611,-19.9433,19.9433,-13.9611,269.093,80.3027)"><stop offset="0" style="stop-color:rgb(255,212,59);stop-opacity:1"/><stop offset="1" style="stop-color:rgb(255,232,115);stop-opacity:1"/></linearGradient>
    </defs>
</svg>
