<?xml version="1.0" encoding="UTF-8" standalone="no"?>
<!DOCTYPE svg PUBLIC "-//W3C//DTD SVG 1.1//EN" "http://www.w3.org/Graphics/SVG/1.1/DTD/svg11.dtd">
<svg width="100%" height="100%" viewBox="0 0 520 297" version="1.1" xmlns="http://www.w3.org/2000/svg" xmlns:xlink="http://www.w3.org/1999/xlink" xml:space="preserve" xmlns:serif="http://www.serif.com/" style="fill-rule:evenodd;clip-rule:evenodd;stroke-linejoin:round;stroke-miterlimit:1.5;">
    <g id="Card-Operator-divide" serif:id="Card/Operator/divide">
        <path d="M401.795,148.751C401.795,70.526 338.287,7.018 260.063,7.018C181.839,7.018 118.331,70.526 118.331,148.751C118.331,226.975 181.839,290.483 260.063,290.483C338.287,290.483 401.795,226.975 401.795,148.751Z" style="fill:rgb(234,252,241);stroke:rgb(0,138,53);stroke-width:12.5px;"/>
        <g id="BentArrow">
            <circle cx="92.937" cy="7.018" r="3.543"/>
            <rect x="0.22" y="3.475" width="92.717" height="7.087"/>
            <path d="M132.209,35.342L127.653,40.771L90.731,9.789L95.286,4.361L132.209,35.342Z"/>
            <path d="M151.497,55.739L123.646,44.916L135.709,30.37L151.497,55.739Z"/>
        </g>
        <g id="BentArrow1" serif:id="BentArrow">
            <circle cx="92.937" cy="289.449" r="3.543"/>
            <rect x="0.22" y="285.906" width="92.717" height="7.087"/>
            <path d="M132.209,261.125L127.653,255.697L90.731,286.678L95.286,292.107L132.209,261.125Z"/>
            <path d="M151.497,240.729L123.646,251.552L135.709,266.098L151.497,240.729Z"/>
        </g>
        <g id="Arrow">
            <rect x="401.795" y="145.207" width="89.764" height="7.087"/>
            <path d="M519.906,148.751L491.559,158.199L491.559,139.302L519.906,148.751Z"/>
        </g>
        <g transform="matrix(100,0,0,100,286.063,180.051)">
        </g>
        <text x="234.063px" y="180.051px" style="font-family:'FiraSans-Bold', 'Fira Sans', sans-serif;font-weight:700;font-size:100px;">/</text>
        <g id="Python-Logo" serif:id="Python Logo">
            <g>
                <path id="path1948" d="M259.641,18.439C256.719,18.452 253.928,18.701 251.473,19.136C244.24,20.414 242.926,23.088 242.926,28.021L242.926,34.536L260.02,34.536L260.02,36.707L236.511,36.707C231.544,36.707 227.194,39.693 225.833,45.373C224.264,51.884 224.194,55.947 225.833,62.745C227.048,67.806 229.95,71.411 234.918,71.411L240.795,71.411L240.795,63.602C240.795,57.96 245.676,52.983 251.473,52.983L268.546,52.983C273.299,52.983 277.093,49.07 277.093,44.297L277.093,28.021C277.093,23.389 273.185,19.909 268.546,19.136C265.61,18.647 262.563,18.425 259.641,18.439ZM250.397,23.678C252.163,23.678 253.605,25.143 253.605,26.945C253.605,28.741 252.163,30.193 250.397,30.193C248.625,30.193 247.19,28.741 247.19,26.945C247.19,25.143 248.625,23.678 250.397,23.678Z" style="fill:url(#_Linear1);fill-rule:nonzero;"/>
                <path id="path1950" d="M279.224,36.707L279.224,44.297C279.224,50.182 274.235,55.135 268.546,55.135L251.473,55.135C246.796,55.135 242.926,59.138 242.926,63.821L242.926,80.097C242.926,84.73 246.955,87.454 251.473,88.783C256.884,90.374 262.072,90.662 268.546,88.783C272.849,87.538 277.093,85.03 277.093,80.097L277.093,73.583L260.02,73.583L260.02,71.411L285.639,71.411C290.607,71.411 292.458,67.946 294.186,62.745C295.971,57.391 295.895,52.242 294.186,45.373C292.958,40.428 290.613,36.707 285.639,36.707L279.224,36.707ZM269.622,77.926C271.394,77.926 272.829,79.378 272.829,81.173C272.829,82.975 271.394,84.44 269.622,84.44C267.856,84.44 266.415,82.975 266.415,81.173C266.415,79.378 267.856,77.926 269.622,77.926Z" style="fill:url(#_Linear2);fill-rule:nonzero;"/>
            </g>
            <rect x="212.819" y="7.018" width="94.488" height="94.488" style="fill:none;"/>
        </g>
    </g>
    <defs>
        <linearGradient id="_Linear1" x1="0" y1="0" x2="1" y2="0" gradientUnits="userSpaceOnUse" gradientTransform="matrix(39.0958,33.9615,-33.9615,39.0958,224.63,18.438)"><stop offset="0" style="stop-color:rgb(90,159,212);stop-opacity:1"/><stop offset="1" style="stop-color:rgb(48,105,152);stop-opacity:1"/></linearGradient>
        <linearGradient id="_Linear2" x1="0" y1="0" x2="1" y2="0" gradientUnits="userSpaceOnUse" gradientTransform="matrix(-13.9611,-19.9433,19.9433,-13.9611,269.211,80.6255)"><stop offset="0" style="stop-color:rgb(255,212,59);stop-opacity:1"/><stop offset="1" style="stop-color:rgb(255,232,115);stop-opacity:1"/></linearGradient>
    </defs>
</svg>
