<?xml version="1.0" encoding="UTF-8" standalone="no"?>
<!DOCTYPE svg PUBLIC "-//W3C//DTD SVG 1.1//EN" "http://www.w3.org/Graphics/SVG/1.1/DTD/svg11.dtd">
<svg width="100%" height="100%" viewBox="0 0 521 297" version="1.1" xmlns="http://www.w3.org/2000/svg" xmlns:xlink="http://www.w3.org/1999/xlink" xml:space="preserve" xmlns:serif="http://www.serif.com/" style="fill-rule:evenodd;clip-rule:evenodd;stroke-linejoin:round;stroke-miterlimit:1.5;">
    <g id="Card-Operator-equal" serif:id="Card/Operator/equal">
        <path d="M402.559,148.31C402.559,70.085 339.051,6.577 260.827,6.577C182.603,6.577 119.094,70.085 119.094,148.31C119.094,226.534 182.603,290.042 260.827,290.042C339.051,290.042 402.559,226.534 402.559,148.31Z" style="fill:rgb(234,252,241);stroke:rgb(0,138,53);stroke-width:12.5px;"/>
        <g id="BentArrow">
            <circle cx="93.701" cy="6.577" r="3.543"/>
            <rect x="0.984" y="3.034" width="92.717" height="7.087"/>
            <path d="M132.972,34.901L128.417,40.33L91.495,9.349L96.05,3.92L132.972,34.901Z"/>
            <path d="M152.26,55.298L124.409,44.475L136.473,29.929L152.26,55.298Z"/>
        </g>
        <g id="BentArrow1" serif:id="BentArrow">
            <circle cx="93.701" cy="289.008" r="3.543"/>
            <rect x="0.984" y="285.465" width="92.717" height="7.087"/>
            <path d="M132.972,260.684L128.417,255.256L91.495,286.237L96.05,291.666L132.972,260.684Z"/>
            <path d="M152.26,240.288L124.409,251.111L136.473,265.657L152.26,240.288Z"/>
        </g>
        <g id="Arrow">
            <rect x="402.559" y="144.766" width="89.764" height="7.087"/>
            <path d="M520.669,148.31L492.323,157.758L492.323,138.861L520.669,148.31Z"/>
        </g>
        <g transform="matrix(100,0,0,100,312.727,179.61)">
        </g>
        <text x="208.927px" y="179.61px" style="font-family:'FiraSans-Bold', 'Fira Sans', sans-serif;font-weight:700;font-size:100px;">==</text>
        <g id="Python-Logo" serif:id="Python Logo">
            <g>
                <path id="path1948" d="M260.405,17.998C257.483,18.011 254.692,18.26 252.237,18.695C245.003,19.973 243.69,22.648 243.69,27.58L243.69,34.095L260.783,34.095L260.783,36.266L237.275,36.266C232.308,36.266 227.958,39.252 226.597,44.932C225.028,51.443 224.958,55.506 226.597,62.304C227.812,67.365 230.714,70.97 235.681,70.97L241.559,70.97L241.559,63.161C241.559,57.519 246.44,52.543 252.237,52.543L269.31,52.543C274.063,52.543 277.857,48.629 277.857,43.857L277.857,27.58C277.857,22.948 273.949,19.468 269.31,18.695C266.374,18.206 263.327,17.984 260.405,17.998ZM251.161,23.237C252.927,23.237 254.368,24.703 254.368,26.504C254.368,28.3 252.927,29.752 251.161,29.752C249.389,29.752 247.954,28.3 247.954,26.504C247.954,24.703 249.389,23.237 251.161,23.237Z" style="fill:url(#_Linear1);fill-rule:nonzero;"/>
                <path id="path1950" d="M279.988,36.266L279.988,43.857C279.988,49.741 274.999,54.694 269.31,54.694L252.237,54.694C247.56,54.694 243.69,58.697 243.69,63.38L243.69,79.657C243.69,84.289 247.718,87.014 252.237,88.343C257.647,89.934 262.836,90.221 269.31,88.343C273.613,87.097 277.857,84.589 277.857,79.657L277.857,73.142L260.783,73.142L260.783,70.97L286.403,70.97C291.371,70.97 293.222,67.505 294.95,62.304C296.734,56.95 296.658,51.801 294.95,44.932C293.722,39.987 291.377,36.266 286.403,36.266L279.988,36.266ZM270.386,77.485C272.158,77.485 273.593,78.937 273.593,80.732C273.593,82.534 272.158,84 270.386,84C268.62,84 267.178,82.534 267.178,80.732C267.178,78.937 268.62,77.485 270.386,77.485Z" style="fill:url(#_Linear2);fill-rule:nonzero;"/>
            </g>
            <rect x="213.583" y="6.577" width="94.488" height="94.488" style="fill:none;"/>
        </g>
    </g>
    <defs>
        <linearGradient id="_Linear1" x1="0" y1="0" x2="1" y2="0" gradientUnits="userSpaceOnUse" gradientTransform="matrix(39.0958,33.9615,-33.9615,39.0958,225.394,17.997)"><stop offset="0" style="stop-color:rgb(90,159,212);stop-opacity:1"/><stop offset="1" style="stop-color:rgb(48,105,152);stop-opacity:1"/></linearGradient>
        <linearGradient id="_Linear2" x1="0" y1="0" x2="1" y2="0" gradientUnits="userSpaceOnUse" gradientTransform="matrix(-13.9611,-19.9433,19.9433,-13.9611,269.975,80.1846)"><stop offset="0" style="stop-color:rgb(255,212,59);stop-opacity:1"/><stop offset="1" style="stop-color:rgb(255,232,115);stop-opacity:1"/></linearGradient>
    </defs>
</svg>
