<?xml version="1.0" encoding="UTF-8" standalone="no"?>
<!DOCTYPE svg PUBLIC "-//W3C//DTD SVG 1.1//EN" "http://www.w3.org/Graphics/SVG/1.1/DTD/svg11.dtd">
<svg width="100%" height="100%" viewBox="0 0 520 297" version="1.1" xmlns="http://www.w3.org/2000/svg" xmlns:xlink="http://www.w3.org/1999/xlink" xml:space="preserve" xmlns:serif="http://www.serif.com/" style="fill-rule:evenodd;clip-rule:evenodd;stroke-linejoin:round;stroke-miterlimit:1.5;">
    <g id="Card-Operator-integer-divide" serif:id="Card/Operator/integer-divide">
        <path d="M401.795,148.192C401.795,69.967 338.287,6.459 260.063,6.459C181.839,6.459 118.331,69.967 118.331,148.192C118.331,226.416 181.839,289.924 260.063,289.924C338.287,289.924 401.795,226.416 401.795,148.192Z" style="fill:rgb(234,252,241);stroke:rgb(0,138,53);stroke-width:12.5px;"/>
        <g id="BentArrow">
            <circle cx="92.937" cy="6.459" r="3.543"/>
            <rect x="0.22" y="2.916" width="92.717" height="7.087"/>
            <path d="M132.209,34.783L127.653,40.212L90.731,9.23L95.286,3.802L132.209,34.783Z"/>
            <path d="M151.497,55.18L123.646,44.357L135.709,29.811L151.497,55.18Z"/>
        </g>
        <g id="BentArrow1" serif:id="BentArrow">
            <circle cx="92.937" cy="288.89" r="3.543"/>
            <rect x="0.22" y="285.347" width="92.717" height="7.087"/>
            <path d="M132.209,260.566L127.653,255.138L90.731,286.119L95.286,291.548L132.209,260.566Z"/>
            <path d="M151.497,240.17L123.646,250.993L135.709,265.539L151.497,240.17Z"/>
        </g>
        <g id="Arrow">
            <rect x="401.795" y="144.648" width="89.764" height="7.087"/>
            <path d="M519.906,148.192L491.559,157.64L491.559,138.743L519.906,148.192Z"/>
        </g>
        <g transform="matrix(100,0,0,100,306.063,179.492)">
        </g>
        <text x="214.063px" y="179.492px" style="font-family:'FiraSans-Bold', 'Fira Sans', sans-serif;font-weight:700;font-size:100px;">/<tspan x="254.063px " y="179.492px ">/</tspan></text>
        <g id="Python-Logo" serif:id="Python Logo">
            <g>
                <path id="path1948" d="M259.641,17.88C256.719,17.893 253.928,18.142 251.473,18.577C244.24,19.855 242.926,22.529 242.926,27.462L242.926,33.977L260.02,33.977L260.02,36.148L236.511,36.148C231.544,36.148 227.194,39.134 225.833,44.814C224.264,51.325 224.194,55.388 225.833,62.186C227.048,67.247 229.95,70.852 234.918,70.852L240.795,70.852L240.795,63.043C240.795,57.401 245.676,52.424 251.473,52.424L268.546,52.424C273.299,52.424 277.093,48.511 277.093,43.738L277.093,27.462C277.093,22.83 273.185,19.35 268.546,18.577C265.61,18.088 262.563,17.866 259.641,17.88ZM250.397,23.119C252.163,23.119 253.605,24.584 253.605,26.386C253.605,28.182 252.163,29.634 250.397,29.634C248.625,29.634 247.19,28.182 247.19,26.386C247.19,24.584 248.625,23.119 250.397,23.119Z" style="fill:url(#_Linear1);fill-rule:nonzero;"/>
                <path id="path1950" d="M279.224,36.148L279.224,43.738C279.224,49.623 274.235,54.576 268.546,54.576L251.473,54.576C246.796,54.576 242.926,58.579 242.926,63.262L242.926,79.538C242.926,84.171 246.955,86.895 251.473,88.224C256.884,89.815 262.072,90.103 268.546,88.224C272.849,86.978 277.093,84.471 277.093,79.538L277.093,73.024L260.02,73.024L260.02,70.852L285.639,70.852C290.607,70.852 292.458,67.387 294.186,62.186C295.971,56.832 295.895,51.683 294.186,44.814C292.958,39.869 290.613,36.148 285.639,36.148L279.224,36.148ZM269.622,77.367C271.394,77.367 272.829,78.819 272.829,80.614C272.829,82.416 271.394,83.881 269.622,83.881C267.856,83.881 266.415,82.416 266.415,80.614C266.415,78.819 267.856,77.367 269.622,77.367Z" style="fill:url(#_Linear2);fill-rule:nonzero;"/>
            </g>
            <rect x="212.819" y="6.459" width="94.488" height="94.488" style="fill:none;"/>
        </g>
    </g>
    <defs>
        <linearGradient id="_Linear1" x1="0" y1="0" x2="1" y2="0" gradientUnits="userSpaceOnUse" gradientTransform="matrix(39.0958,33.9615,-33.9615,39.0958,224.63,17.8789)"><stop offset="0" style="stop-color:rgb(90,159,212);stop-opacity:1"/><stop offset="1" style="stop-color:rgb(48,105,152);stop-opacity:1"/></linearGradient>
        <linearGradient id="_Linear2" x1="0" y1="0" x2="1" y2="0" gradientUnits="userSpaceOnUse" gradientTransform="matrix(-13.9611,-19.9433,19.9433,-13.9611,269.211,80.0665)"><stop offset="0" style="stop-color:rgb(255,212,59);stop-opacity:1"/><stop offset="1" style="stop-color:rgb(255,232,115);stop-opacity:1"/></linearGradient>
    </defs>
</svg>
