<?xml version="1.0" encoding="UTF-8" standalone="no"?>
<!DOCTYPE svg PUBLIC "-//W3C//DTD SVG 1.1//EN" "http://www.w3.org/Graphics/SVG/1.1/DTD/svg11.dtd">
<svg width="100%" height="100%" viewBox="0 0 521 297" version="1.1" xmlns="http://www.w3.org/2000/svg" xmlns:xlink="http://www.w3.org/1999/xlink" xml:space="preserve" xmlns:serif="http://www.serif.com/" style="fill-rule:evenodd;clip-rule:evenodd;stroke-linejoin:round;stroke-miterlimit:1.5;">
    <g id="Card-Operator-greater-than" serif:id="Card/Operator/greater-than">
        <path d="M402.559,148.869C402.559,70.644 339.051,7.136 260.827,7.136C182.603,7.136 119.094,70.644 119.094,148.869C119.094,227.093 182.603,290.601 260.827,290.601C339.051,290.601 402.559,227.093 402.559,148.869Z" style="fill:rgb(234,252,241);stroke:rgb(0,138,53);stroke-width:12.5px;"/>
        <g id="BentArrow">
            <circle cx="93.701" cy="7.136" r="3.543"/>
            <rect x="0.984" y="3.593" width="92.717" height="7.087"/>
            <path d="M132.972,35.461L128.417,40.889L91.495,9.908L96.05,4.479L132.972,35.461Z"/>
            <path d="M152.26,55.857L124.409,45.034L136.473,30.488L152.26,55.857Z"/>
        </g>
        <g id="BentArrow1" serif:id="BentArrow">
            <circle cx="93.701" cy="289.567" r="3.543"/>
            <rect x="0.984" y="286.024" width="92.717" height="7.087"/>
            <path d="M132.972,261.243L128.417,255.815L91.495,286.796L96.05,292.225L132.972,261.243Z"/>
            <path d="M152.26,240.847L124.409,251.67L136.473,266.216L152.26,240.847Z"/>
        </g>
        <g id="Arrow">
            <rect x="402.559" y="145.325" width="89.764" height="7.087"/>
            <path d="M520.669,148.869L492.323,158.317L492.323,139.42L520.669,148.869Z"/>
        </g>
        <g transform="matrix(100,0,0,100,286.777,180.169)">
        </g>
        <text x="234.877px" y="180.169px" style="font-family:'FiraSans-Bold', 'Fira Sans', sans-serif;font-weight:700;font-size:100px;">&gt;</text>
        <g id="Python-Logo" serif:id="Python Logo">
            <g>
                <path id="path1948" d="M260.405,18.557C257.483,18.57 254.692,18.819 252.237,19.254C245.003,20.532 243.69,23.207 243.69,28.139L243.69,34.654L260.783,34.654L260.783,36.825L237.275,36.825C232.308,36.825 227.958,39.811 226.597,45.491C225.028,52.002 224.958,56.065 226.597,62.863C227.812,67.924 230.714,71.53 235.681,71.53L241.559,71.53L241.559,63.72C241.559,58.078 246.44,53.102 252.237,53.102L269.31,53.102C274.063,53.102 277.857,49.188 277.857,44.416L277.857,28.139C277.857,23.507 273.949,20.027 269.31,19.254C266.374,18.765 263.327,18.543 260.405,18.557ZM251.161,23.796C252.927,23.796 254.368,25.262 254.368,27.063C254.368,28.859 252.927,30.311 251.161,30.311C249.389,30.311 247.954,28.859 247.954,27.063C247.954,25.262 249.389,23.796 251.161,23.796Z" style="fill:url(#_Linear1);fill-rule:nonzero;"/>
                <path id="path1950" d="M279.988,36.825L279.988,44.416C279.988,50.3 274.999,55.253 269.31,55.253L252.237,55.253C247.56,55.253 243.69,59.256 243.69,63.939L243.69,80.216C243.69,84.848 247.718,87.573 252.237,88.902C257.647,90.493 262.836,90.78 269.31,88.902C273.613,87.656 277.857,85.148 277.857,80.216L277.857,73.701L260.783,73.701L260.783,71.53L286.403,71.53C291.371,71.53 293.222,68.064 294.95,62.863C296.734,57.509 296.658,52.36 294.95,45.491C293.722,40.546 291.377,36.825 286.403,36.825L279.988,36.825ZM270.386,78.044C272.158,78.044 273.593,79.496 273.593,81.291C273.593,83.093 272.158,84.559 270.386,84.559C268.62,84.559 267.178,83.093 267.178,81.291C267.178,79.496 268.62,78.044 270.386,78.044Z" style="fill:url(#_Linear2);fill-rule:nonzero;"/>
            </g>
            <rect x="213.583" y="7.136" width="94.488" height="94.488" style="fill:none;"/>
        </g>
    </g>
    <defs>
        <linearGradient id="_Linear1" x1="0" y1="0" x2="1" y2="0" gradientUnits="userSpaceOnUse" gradientTransform="matrix(39.0958,33.9615,-33.9615,39.0958,225.394,18.5561)"><stop offset="0" style="stop-color:rgb(90,159,212);stop-opacity:1"/><stop offset="1" style="stop-color:rgb(48,105,152);stop-opacity:1"/></linearGradient>
        <linearGradient id="_Linear2" x1="0" y1="0" x2="1" y2="0" gradientUnits="userSpaceOnUse" gradientTransform="matrix(-13.9611,-19.9433,19.9433,-13.9611,269.975,80.7437)"><stop offset="0" style="stop-color:rgb(255,212,59);stop-opacity:1"/><stop offset="1" style="stop-color:rgb(255,232,115);stop-opacity:1"/></linearGradient>
    </defs>
</svg>
