<?xml version="1.0" encoding="UTF-8" standalone="no"?>
<!DOCTYPE svg PUBLIC "-//W3C//DTD SVG 1.1//EN" "http://www.w3.org/Graphics/SVG/1.1/DTD/svg11.dtd">
<svg width="100%" height="100%" viewBox="0 0 521 297" version="1.1" xmlns="http://www.w3.org/2000/svg" xmlns:xlink="http://www.w3.org/1999/xlink" xml:space="preserve" xmlns:serif="http://www.serif.com/" style="fill-rule:evenodd;clip-rule:evenodd;stroke-linejoin:round;stroke-miterlimit:1.5;">
    <g id="Card-Operator-greater-or-equal" serif:id="Card/Operator/greater-or-equal">
        <path d="M402.559,148.428C402.559,70.204 339.051,6.695 260.827,6.695C182.603,6.695 119.094,70.204 119.094,148.428C119.094,226.652 182.603,290.16 260.827,290.16C339.051,290.16 402.559,226.652 402.559,148.428Z" style="fill:rgb(234,252,241);stroke:rgb(0,138,53);stroke-width:12.5px;"/>
        <g id="BentArrow">
            <circle cx="93.701" cy="6.695" r="3.543"/>
            <rect x="0.984" y="3.152" width="92.717" height="7.087"/>
            <path d="M132.972,35.02L128.417,40.448L91.495,9.467L96.05,4.038L132.972,35.02Z"/>
            <path d="M152.26,55.416L124.409,44.593L136.473,30.047L152.26,55.416Z"/>
        </g>
        <g id="BentArrow1" serif:id="BentArrow">
            <circle cx="93.701" cy="289.127" r="3.543"/>
            <rect x="0.984" y="285.583" width="92.717" height="7.087"/>
            <path d="M132.972,260.802L128.417,255.374L91.495,286.355L96.05,291.784L132.972,260.802Z"/>
            <path d="M152.26,240.406L124.409,251.229L136.473,265.775L152.26,240.406Z"/>
        </g>
        <g id="Arrow">
            <rect x="402.559" y="144.884" width="89.764" height="7.087"/>
            <path d="M520.669,148.428L492.323,157.877L492.323,138.979L520.669,148.428Z"/>
        </g>
        <g transform="matrix(100,0,0,100,312.727,179.728)">
        </g>
        <text x="208.927px" y="179.728px" style="font-family:'FiraSans-Bold', 'Fira Sans', sans-serif;font-weight:700;font-size:100px;">&gt;=</text>
        <g id="Python-Logo" serif:id="Python Logo">
            <g>
                <path id="path1948" d="M260.405,18.116C257.483,18.129 254.692,18.379 252.237,18.813C245.003,20.091 243.69,22.766 243.69,27.698L243.69,34.213L260.783,34.213L260.783,36.384L237.275,36.384C232.308,36.384 227.958,39.37 226.597,45.05C225.028,51.561 224.958,55.624 226.597,62.422C227.812,67.483 230.714,71.089 235.681,71.089L241.559,71.089L241.559,63.279C241.559,57.637 246.44,52.661 252.237,52.661L269.31,52.661C274.063,52.661 277.857,48.748 277.857,43.975L277.857,27.698C277.857,23.066 273.949,19.586 269.31,18.813C266.374,18.324 263.327,18.102 260.405,18.116ZM251.161,23.355C252.927,23.355 254.368,24.821 254.368,26.622C254.368,28.418 252.927,29.87 251.161,29.87C249.389,29.87 247.954,28.418 247.954,26.622C247.954,24.821 249.389,23.355 251.161,23.355Z" style="fill:url(#_Linear1);fill-rule:nonzero;"/>
                <path id="path1950" d="M279.988,36.384L279.988,43.975C279.988,49.859 274.999,54.812 269.31,54.812L252.237,54.812C247.56,54.812 243.69,58.815 243.69,63.498L243.69,79.775C243.69,84.407 247.718,87.132 252.237,88.461C257.647,90.052 262.836,90.339 269.31,88.461C273.613,87.215 277.857,84.707 277.857,79.775L277.857,73.26L260.783,73.26L260.783,71.089L286.403,71.089C291.371,71.089 293.222,67.623 294.95,62.422C296.734,57.068 296.658,51.919 294.95,45.05C293.722,40.105 291.377,36.384 286.403,36.384L279.988,36.384ZM270.386,77.603C272.158,77.603 273.593,79.055 273.593,80.85C273.593,82.652 272.158,84.118 270.386,84.118C268.62,84.118 267.178,82.652 267.178,80.85C267.178,79.055 268.62,77.603 270.386,77.603Z" style="fill:url(#_Linear2);fill-rule:nonzero;"/>
            </g>
            <rect x="213.583" y="6.695" width="94.488" height="94.488" style="fill:none;"/>
        </g>
    </g>
    <defs>
        <linearGradient id="_Linear1" x1="0" y1="0" x2="1" y2="0" gradientUnits="userSpaceOnUse" gradientTransform="matrix(39.0958,33.9615,-33.9615,39.0958,225.394,18.1152)"><stop offset="0" style="stop-color:rgb(90,159,212);stop-opacity:1"/><stop offset="1" style="stop-color:rgb(48,105,152);stop-opacity:1"/></linearGradient>
        <linearGradient id="_Linear2" x1="0" y1="0" x2="1" y2="0" gradientUnits="userSpaceOnUse" gradientTransform="matrix(-13.9611,-19.9433,19.9433,-13.9611,269.975,80.3027)"><stop offset="0" style="stop-color:rgb(255,212,59);stop-opacity:1"/><stop offset="1" style="stop-color:rgb(255,232,115);stop-opacity:1"/></linearGradient>
    </defs>
</svg>
