<?xml version="1.0" encoding="UTF-8" standalone="no"?>
<!DOCTYPE svg PUBLIC "-//W3C//DTD SVG 1.1//EN" "http://www.w3.org/Graphics/SVG/1.1/DTD/svg11.dtd">
<svg width="100%" height="100%" viewBox="0 0 521 297" version="1.1" xmlns="http://www.w3.org/2000/svg" xmlns:xlink="http://www.w3.org/1999/xlink" xml:space="preserve" xmlns:serif="http://www.serif.com/" style="fill-rule:evenodd;clip-rule:evenodd;stroke-linejoin:round;stroke-miterlimit:1.5;">
    <g id="Card-Operator-less-than" serif:id="Card/Operator/less-than">
        <path d="M402.559,148.546C402.559,70.322 339.051,6.814 260.827,6.814C182.603,6.814 119.094,70.322 119.094,148.546C119.094,226.77 182.603,290.278 260.827,290.278C339.051,290.278 402.559,226.77 402.559,148.546Z" style="fill:rgb(234,252,241);stroke:rgb(0,138,53);stroke-width:12.5px;"/>
        <g id="BentArrow">
            <circle cx="93.701" cy="6.814" r="3.543"/>
            <rect x="0.984" y="3.27" width="92.717" height="7.087"/>
            <path d="M132.972,35.138L128.417,40.566L91.495,9.585L96.05,4.156L132.972,35.138Z"/>
            <path d="M152.26,55.534L124.409,44.711L136.473,30.165L152.26,55.534Z"/>
        </g>
        <g id="BentArrow1" serif:id="BentArrow">
            <circle cx="93.701" cy="289.245" r="3.543"/>
            <rect x="0.984" y="285.701" width="92.717" height="7.087"/>
            <path d="M132.972,260.921L128.417,255.492L91.495,286.473L96.05,291.902L132.972,260.921Z"/>
            <path d="M152.26,240.524L124.409,251.347L136.473,265.893L152.26,240.524Z"/>
        </g>
        <g id="Arrow">
            <rect x="402.559" y="145.003" width="89.764" height="7.087"/>
            <path d="M520.669,148.546L492.323,157.995L492.323,139.097L520.669,148.546Z"/>
        </g>
        <g transform="matrix(100,0,0,100,286.777,179.846)">
        </g>
        <text x="234.877px" y="179.846px" style="font-family:'FiraSans-Bold', 'Fira Sans', sans-serif;font-weight:700;font-size:100px;">&lt;</text>
        <g id="Python-Logo" serif:id="Python Logo">
            <g>
                <path id="path1948" d="M260.405,18.234C257.483,18.247 254.692,18.497 252.237,18.931C245.003,20.209 243.69,22.884 243.69,27.816L243.69,34.331L260.783,34.331L260.783,36.502L237.275,36.502C232.308,36.502 227.958,39.488 226.597,45.169C225.028,51.679 224.958,55.742 226.597,62.541C227.812,67.601 230.714,71.207 235.681,71.207L241.559,71.207L241.559,63.397C241.559,57.755 246.44,52.779 252.237,52.779L269.31,52.779C274.063,52.779 277.857,48.866 277.857,44.093L277.857,27.816C277.857,23.184 273.949,19.704 269.31,18.931C266.374,18.442 263.327,18.22 260.405,18.234ZM251.161,23.473C252.927,23.473 254.368,24.939 254.368,26.741C254.368,28.536 252.927,29.988 251.161,29.988C249.389,29.988 247.954,28.536 247.954,26.741C247.954,24.939 249.389,23.473 251.161,23.473Z" style="fill:url(#_Linear1);fill-rule:nonzero;"/>
                <path id="path1950" d="M279.988,36.502L279.988,44.093C279.988,49.977 274.999,54.93 269.31,54.93L252.237,54.93C247.56,54.93 243.69,58.933 243.69,63.616L243.69,79.893C243.69,84.525 247.718,87.25 252.237,88.579C257.647,90.17 262.836,90.457 269.31,88.579C273.613,87.333 277.857,84.825 277.857,79.893L277.857,73.378L260.783,73.378L260.783,71.207L286.403,71.207C291.371,71.207 293.222,67.742 294.95,62.541C296.734,57.186 296.658,52.037 294.95,45.169C293.722,40.223 291.377,36.502 286.403,36.502L279.988,36.502ZM270.386,77.721C272.158,77.721 273.593,79.173 273.593,80.969C273.593,82.77 272.158,84.236 270.386,84.236C268.62,84.236 267.178,82.77 267.178,80.969C267.178,79.173 268.62,77.721 270.386,77.721Z" style="fill:url(#_Linear2);fill-rule:nonzero;"/>
            </g>
            <rect x="213.583" y="6.814" width="94.488" height="94.488" style="fill:none;"/>
        </g>
    </g>
    <defs>
        <linearGradient id="_Linear1" x1="0" y1="0" x2="1" y2="0" gradientUnits="userSpaceOnUse" gradientTransform="matrix(39.0958,33.9615,-33.9615,39.0958,225.394,18.2333)"><stop offset="0" style="stop-color:rgb(90,159,212);stop-opacity:1"/><stop offset="1" style="stop-color:rgb(48,105,152);stop-opacity:1"/></linearGradient>
        <linearGradient id="_Linear2" x1="0" y1="0" x2="1" y2="0" gradientUnits="userSpaceOnUse" gradientTransform="matrix(-13.9611,-19.9433,19.9433,-13.9611,269.975,80.4208)"><stop offset="0" style="stop-color:rgb(255,212,59);stop-opacity:1"/><stop offset="1" style="stop-color:rgb(255,232,115);stop-opacity:1"/></linearGradient>
    </defs>
</svg>
