<?xml version="1.0" encoding="UTF-8" standalone="no"?>
<!DOCTYPE svg PUBLIC "-//W3C//DTD SVG 1.1//EN" "http://www.w3.org/Graphics/SVG/1.1/DTD/svg11.dtd">
<svg width="100%" height="100%" viewBox="0 0 521 296" version="1.1" xmlns="http://www.w3.org/2000/svg" xmlns:xlink="http://www.w3.org/1999/xlink" xml:space="preserve" xmlns:serif="http://www.serif.com/" style="fill-rule:evenodd;clip-rule:evenodd;stroke-linejoin:round;stroke-miterlimit:1.5;">
    <g id="Card-Operator-less-or-equal" serif:id="Card/Operator/less-or-equal">
        <path d="M402.559,147.987C402.559,69.763 339.051,6.254 260.827,6.254C182.603,6.254 119.094,69.763 119.094,147.987C119.094,226.211 182.603,289.719 260.827,289.719C339.051,289.719 402.559,226.211 402.559,147.987Z" style="fill:rgb(234,252,241);stroke:rgb(0,138,53);stroke-width:12.5px;"/>
        <g id="BentArrow">
            <circle cx="93.701" cy="6.254" r="3.543"/>
            <rect x="0.984" y="2.711" width="92.717" height="7.087"/>
            <path d="M132.972,34.579L128.417,40.007L91.495,9.026L96.05,3.597L132.972,34.579Z"/>
            <path d="M152.26,54.975L124.409,44.152L136.473,29.606L152.26,54.975Z"/>
        </g>
        <g id="BentArrow1" serif:id="BentArrow">
            <circle cx="93.701" cy="288.686" r="3.543"/>
            <rect x="0.984" y="285.142" width="92.717" height="7.087"/>
            <path d="M132.972,260.361L128.417,254.933L91.495,285.914L96.05,291.343L132.972,260.361Z"/>
            <path d="M152.26,239.965L124.409,250.788L136.473,265.334L152.26,239.965Z"/>
        </g>
        <g id="Arrow">
            <rect x="402.559" y="144.443" width="89.764" height="7.087"/>
            <path d="M520.669,147.987L492.323,157.436L492.323,138.538L520.669,147.987Z"/>
        </g>
        <g transform="matrix(100,0,0,100,312.727,179.287)">
        </g>
        <text x="208.927px" y="179.287px" style="font-family:'FiraSans-Bold', 'Fira Sans', sans-serif;font-weight:700;font-size:100px;">&lt;=</text>
        <g id="Python-Logo" serif:id="Python Logo">
            <g>
                <path id="path1948" d="M260.405,17.675C257.483,17.688 254.692,17.938 252.237,18.372C245.003,19.65 243.69,22.325 243.69,27.257L243.69,33.772L260.783,33.772L260.783,35.943L237.275,35.943C232.308,35.943 227.958,38.929 226.597,44.609C225.028,51.12 224.958,55.183 226.597,61.982C227.812,67.042 230.714,70.648 235.681,70.648L241.559,70.648L241.559,62.838C241.559,57.196 246.44,52.22 252.237,52.22L269.31,52.22C274.063,52.22 277.857,48.307 277.857,43.534L277.857,27.257C277.857,22.625 273.949,19.145 269.31,18.372C266.374,17.883 263.327,17.661 260.405,17.675ZM251.161,22.914C252.927,22.914 254.368,24.38 254.368,26.182C254.368,27.977 252.927,29.429 251.161,29.429C249.389,29.429 247.954,27.977 247.954,26.182C247.954,24.38 249.389,22.914 251.161,22.914Z" style="fill:url(#_Linear1);fill-rule:nonzero;"/>
                <path id="path1950" d="M279.988,35.943L279.988,43.534C279.988,49.418 274.999,54.371 269.31,54.371L252.237,54.371C247.56,54.371 243.69,58.374 243.69,63.057L243.69,79.334C243.69,83.966 247.718,86.691 252.237,88.02C257.647,89.611 262.836,89.898 269.31,88.02C273.613,86.774 277.857,84.266 277.857,79.334L277.857,72.819L260.783,72.819L260.783,70.648L286.403,70.648C291.371,70.648 293.222,67.183 294.95,61.982C296.734,56.627 296.658,51.478 294.95,44.609C293.722,39.664 291.377,35.943 286.403,35.943L279.988,35.943ZM270.386,77.162C272.158,77.162 273.593,78.614 273.593,80.409C273.593,82.211 272.158,83.677 270.386,83.677C268.62,83.677 267.178,82.211 267.178,80.409C267.178,78.614 268.62,77.162 270.386,77.162Z" style="fill:url(#_Linear2);fill-rule:nonzero;"/>
            </g>
            <rect x="213.583" y="6.254" width="94.488" height="94.488" style="fill:none;"/>
        </g>
    </g>
    <defs>
        <linearGradient id="_Linear1" x1="0" y1="0" x2="1" y2="0" gradientUnits="userSpaceOnUse" gradientTransform="matrix(39.0958,33.9615,-33.9615,39.0958,225.394,17.6742)"><stop offset="0" style="stop-color:rgb(90,159,212);stop-opacity:1"/><stop offset="1" style="stop-color:rgb(48,105,152);stop-opacity:1"/></linearGradient>
        <linearGradient id="_Linear2" x1="0" y1="0" x2="1" y2="0" gradientUnits="userSpaceOnUse" gradientTransform="matrix(-13.9611,-19.9433,19.9433,-13.9611,269.975,79.8618)"><stop offset="0" style="stop-color:rgb(255,212,59);stop-opacity:1"/><stop offset="1" style="stop-color:rgb(255,232,115);stop-opacity:1"/></linearGradient>
    </defs>
</svg>
