<?xml version="1.0" encoding="UTF-8" standalone="no"?>
<!DOCTYPE svg PUBLIC "-//W3C//DTD SVG 1.1//EN" "http://www.w3.org/Graphics/SVG/1.1/DTD/svg11.dtd">
<svg width="100%" height="100%" viewBox="0 0 520 297" version="1.1" xmlns="http://www.w3.org/2000/svg" xmlns:xlink="http://www.w3.org/1999/xlink" xml:space="preserve" xmlns:serif="http://www.serif.com/" style="fill-rule:evenodd;clip-rule:evenodd;stroke-linejoin:round;stroke-miterlimit:1.5;">
    <g id="Card-Operator-remainder" serif:id="Card/Operator/remainder">
        <path d="M401.795,148.632C401.795,70.408 338.287,6.9 260.063,6.9C181.839,6.9 118.331,70.408 118.331,148.632C118.331,226.857 181.839,290.365 260.063,290.365C338.287,290.365 401.795,226.857 401.795,148.632Z" style="fill:rgb(234,252,241);stroke:rgb(0,138,53);stroke-width:12.5px;"/>
        <g id="BentArrow">
            <circle cx="92.937" cy="6.9" r="3.543"/>
            <rect x="0.22" y="3.357" width="92.717" height="7.087"/>
            <path d="M132.209,35.224L127.653,40.653L90.731,9.671L95.286,4.243L132.209,35.224Z"/>
            <path d="M151.497,55.621L123.646,44.798L135.709,30.252L151.497,55.621Z"/>
        </g>
        <g id="BentArrow1" serif:id="BentArrow">
            <circle cx="92.937" cy="289.331" r="3.543"/>
            <rect x="0.22" y="285.788" width="92.717" height="7.087"/>
            <path d="M132.209,261.007L127.653,255.578L90.731,286.56L95.286,291.989L132.209,261.007Z"/>
            <path d="M151.497,240.611L123.646,251.433L135.709,265.979L151.497,240.611Z"/>
        </g>
        <g id="Arrow">
            <rect x="401.795" y="145.089" width="89.764" height="7.087"/>
            <path d="M519.906,148.632L491.559,158.081L491.559,139.184L519.906,148.632Z"/>
        </g>
        <g transform="matrix(100,0,0,100,303.013,179.932)">
        </g>
        <text x="217.113px" y="179.932px" style="font-family:'FiraSans-Bold', 'Fira Sans', sans-serif;font-weight:700;font-size:100px;">%</text>
        <g id="Python-Logo" serif:id="Python Logo">
            <g>
                <path id="path1948" d="M259.641,18.32C256.719,18.334 253.928,18.583 251.473,19.018C244.24,20.296 242.926,22.97 242.926,27.903L242.926,34.418L260.02,34.418L260.02,36.589L236.511,36.589C231.544,36.589 227.194,39.575 225.833,45.255C224.264,51.766 224.194,55.829 225.833,62.627C227.048,67.688 229.95,71.293 234.918,71.293L240.795,71.293L240.795,63.484C240.795,57.842 245.676,52.865 251.473,52.865L268.546,52.865C273.299,52.865 277.093,48.952 277.093,44.179L277.093,27.903C277.093,23.271 273.185,19.791 268.546,19.018C265.61,18.529 262.563,18.307 259.641,18.32ZM250.397,23.56C252.163,23.56 253.605,25.025 253.605,26.827C253.605,28.623 252.163,30.074 250.397,30.074C248.625,30.074 247.19,28.623 247.19,26.827C247.19,25.025 248.625,23.56 250.397,23.56Z" style="fill:url(#_Linear1);fill-rule:nonzero;"/>
                <path id="path1950" d="M279.224,36.589L279.224,44.179C279.224,50.064 274.235,55.017 268.546,55.017L251.473,55.017C246.796,55.017 242.926,59.02 242.926,63.703L242.926,79.979C242.926,84.612 246.955,87.336 251.473,88.665C256.884,90.256 262.072,90.544 268.546,88.665C272.849,87.419 277.093,84.912 277.093,79.979L277.093,73.465L260.02,73.465L260.02,71.293L285.639,71.293C290.607,71.293 292.458,67.828 294.186,62.627C295.971,57.273 295.895,52.124 294.186,45.255C292.958,40.31 290.613,36.589 285.639,36.589L279.224,36.589ZM269.622,77.808C271.394,77.808 272.829,79.26 272.829,81.055C272.829,82.857 271.394,84.322 269.622,84.322C267.856,84.322 266.415,82.857 266.415,81.055C266.415,79.26 267.856,77.808 269.622,77.808Z" style="fill:url(#_Linear2);fill-rule:nonzero;"/>
            </g>
            <rect x="212.819" y="6.9" width="94.488" height="94.488" style="fill:none;"/>
        </g>
    </g>
    <defs>
        <linearGradient id="_Linear1" x1="0" y1="0" x2="1" y2="0" gradientUnits="userSpaceOnUse" gradientTransform="matrix(39.0958,33.9615,-33.9615,39.0958,224.63,18.3199)"><stop offset="0" style="stop-color:rgb(90,159,212);stop-opacity:1"/><stop offset="1" style="stop-color:rgb(48,105,152);stop-opacity:1"/></linearGradient>
        <linearGradient id="_Linear2" x1="0" y1="0" x2="1" y2="0" gradientUnits="userSpaceOnUse" gradientTransform="matrix(-13.9611,-19.9433,19.9433,-13.9611,269.211,80.5074)"><stop offset="0" style="stop-color:rgb(255,212,59);stop-opacity:1"/><stop offset="1" style="stop-color:rgb(255,232,115);stop-opacity:1"/></linearGradient>
    </defs>
</svg>
