<?xml version="1.0" encoding="UTF-8" standalone="no"?>
<!DOCTYPE svg PUBLIC "-//W3C//DTD SVG 1.1//EN" "http://www.w3.org/Graphics/SVG/1.1/DTD/svg11.dtd">
<svg width="100%" height="100%" viewBox="0 0 520 297" version="1.1" xmlns="http://www.w3.org/2000/svg" xmlns:xlink="http://www.w3.org/1999/xlink" xml:space="preserve" xmlns:serif="http://www.serif.com/" style="fill-rule:evenodd;clip-rule:evenodd;stroke-linejoin:round;stroke-miterlimit:1.5;">
    <g id="Card-Operator-times" serif:id="Card/Operator/times">
        <path d="M401.795,148.31C401.795,70.085 338.287,6.577 260.063,6.577C181.839,6.577 118.331,70.085 118.331,148.31C118.331,226.534 181.839,290.042 260.063,290.042C338.287,290.042 401.795,226.534 401.795,148.31Z" style="fill:rgb(234,252,241);stroke:rgb(0,138,53);stroke-width:12.5px;"/>
        <g id="BentArrow">
            <circle cx="92.937" cy="6.577" r="3.543"/>
            <rect x="0.22" y="3.034" width="92.717" height="7.087"/>
            <path d="M132.209,34.901L127.653,40.33L90.731,9.349L95.286,3.92L132.209,34.901Z"/>
            <path d="M151.497,55.298L123.646,44.475L135.709,29.929L151.497,55.298Z"/>
        </g>
        <g id="BentArrow1" serif:id="BentArrow">
            <circle cx="92.937" cy="289.008" r="3.543"/>
            <rect x="0.22" y="285.465" width="92.717" height="7.087"/>
            <path d="M132.209,260.684L127.653,255.256L90.731,286.237L95.286,291.666L132.209,260.684Z"/>
            <path d="M151.497,240.288L123.646,251.111L135.709,265.657L151.497,240.288Z"/>
        </g>
        <g id="Arrow">
            <rect x="401.795" y="144.766" width="89.764" height="7.087"/>
            <path d="M519.906,148.31L491.559,157.758L491.559,138.861L519.906,148.31Z"/>
        </g>
        <g transform="matrix(100,0,0,100,282.513,179.61)">
        </g>
        <text x="237.613px" y="179.61px" style="font-family:'FiraSans-Bold', 'Fira Sans', sans-serif;font-weight:700;font-size:100px;">*</text>
        <g id="Python-Logo" serif:id="Python Logo">
            <g>
                <path id="path1948" d="M259.641,17.998C256.719,18.011 253.928,18.26 251.473,18.695C244.24,19.973 242.926,22.648 242.926,27.58L242.926,34.095L260.02,34.095L260.02,36.266L236.511,36.266C231.544,36.266 227.194,39.252 225.833,44.932C224.264,51.443 224.194,55.506 225.833,62.304C227.048,67.365 229.95,70.97 234.918,70.97L240.795,70.97L240.795,63.161C240.795,57.519 245.676,52.543 251.473,52.543L268.546,52.543C273.299,52.543 277.093,48.629 277.093,43.857L277.093,27.58C277.093,22.948 273.185,19.468 268.546,18.695C265.61,18.206 262.563,17.984 259.641,17.998ZM250.397,23.237C252.163,23.237 253.605,24.703 253.605,26.504C253.605,28.3 252.163,29.752 250.397,29.752C248.625,29.752 247.19,28.3 247.19,26.504C247.19,24.703 248.625,23.237 250.397,23.237Z" style="fill:url(#_Linear1);fill-rule:nonzero;"/>
                <path id="path1950" d="M279.224,36.266L279.224,43.857C279.224,49.741 274.235,54.694 268.546,54.694L251.473,54.694C246.796,54.694 242.926,58.697 242.926,63.38L242.926,79.657C242.926,84.289 246.955,87.014 251.473,88.343C256.884,89.934 262.072,90.221 268.546,88.343C272.849,87.097 277.093,84.589 277.093,79.657L277.093,73.142L260.02,73.142L260.02,70.97L285.639,70.97C290.607,70.97 292.458,67.505 294.186,62.304C295.971,56.95 295.895,51.801 294.186,44.932C292.958,39.987 290.613,36.266 285.639,36.266L279.224,36.266ZM269.622,77.485C271.394,77.485 272.829,78.937 272.829,80.732C272.829,82.534 271.394,84 269.622,84C267.856,84 266.415,82.534 266.415,80.732C266.415,78.937 267.856,77.485 269.622,77.485Z" style="fill:url(#_Linear2);fill-rule:nonzero;"/>
            </g>
            <rect x="212.819" y="6.577" width="94.488" height="94.488" style="fill:none;"/>
        </g>
    </g>
    <defs>
        <linearGradient id="_Linear1" x1="0" y1="0" x2="1" y2="0" gradientUnits="userSpaceOnUse" gradientTransform="matrix(39.0958,33.9615,-33.9615,39.0958,224.63,17.997)"><stop offset="0" style="stop-color:rgb(90,159,212);stop-opacity:1"/><stop offset="1" style="stop-color:rgb(48,105,152);stop-opacity:1"/></linearGradient>
        <linearGradient id="_Linear2" x1="0" y1="0" x2="1" y2="0" gradientUnits="userSpaceOnUse" gradientTransform="matrix(-13.9611,-19.9433,19.9433,-13.9611,269.211,80.1846)"><stop offset="0" style="stop-color:rgb(255,212,59);stop-opacity:1"/><stop offset="1" style="stop-color:rgb(255,232,115);stop-opacity:1"/></linearGradient>
    </defs>
</svg>
