<?xml version="1.0" encoding="UTF-8" standalone="no"?>
<!DOCTYPE svg PUBLIC "-//W3C//DTD SVG 1.1//EN" "http://www.w3.org/Graphics/SVG/1.1/DTD/svg11.dtd">
<svg width="100%" height="100%" viewBox="0 0 520 297" version="1.1" xmlns="http://www.w3.org/2000/svg" xmlns:xlink="http://www.w3.org/1999/xlink" xml:space="preserve" xmlns:serif="http://www.serif.com/" style="fill-rule:evenodd;clip-rule:evenodd;stroke-linejoin:round;stroke-miterlimit:1.5;">
    <g id="Card-Operator-not" serif:id="Card/Operator/not">
        <path d="M401.677,148.546C401.677,70.322 338.169,6.814 259.945,6.814C181.721,6.814 118.213,70.322 118.213,148.546C118.213,226.77 181.721,290.278 259.945,290.278C338.169,290.278 401.677,226.77 401.677,148.546Z" style="fill:rgb(234,252,241);stroke:rgb(0,138,53);stroke-width:12.5px;"/>
        <g id="BentArrow">
            <rect x="0.102" y="145.003" width="89.764" height="7.087"/>
            <path d="M118.213,148.546L89.866,157.995L89.866,139.097L118.213,148.546Z"/>
        </g>
        <g id="BentArrow1" serif:id="BentArrow">
            <rect x="401.677" y="145.003" width="89.764" height="7.087"/>
            <path d="M519.787,148.546L491.441,157.995L491.441,139.097L519.787,148.546Z"/>
        </g>
        <g transform="matrix(83.3333,0,0,83.3333,324.403,179.846)">
        </g>
        <text x="195.487px" y="179.846px" style="font-family:'FiraSans-Bold', 'Fira Sans', sans-serif;font-weight:700;font-size:83.333px;">not</text>
        <g id="Python-Logo" serif:id="Python Logo">
            <g>
                <path id="path1948" d="M259.523,18.234C256.601,18.247 253.81,18.497 251.355,18.931C244.122,20.209 242.808,22.884 242.808,27.816L242.808,34.331L259.901,34.331L259.901,36.502L236.393,36.502C231.426,36.502 227.076,39.488 225.715,45.169C224.146,51.679 224.076,55.742 225.715,62.541C226.93,67.601 229.832,71.207 234.8,71.207L240.677,71.207L240.677,63.397C240.677,57.755 245.558,52.779 251.355,52.779L268.428,52.779C273.181,52.779 276.975,48.866 276.975,44.093L276.975,27.816C276.975,23.184 273.067,19.704 268.428,18.931C265.492,18.442 262.445,18.22 259.523,18.234ZM250.279,23.473C252.045,23.473 253.487,24.939 253.487,26.741C253.487,28.536 252.045,29.988 250.279,29.988C248.507,29.988 247.072,28.536 247.072,26.741C247.072,24.939 248.507,23.473 250.279,23.473Z" style="fill:url(#_Linear1);fill-rule:nonzero;"/>
                <path id="path1950" d="M279.106,36.502L279.106,44.093C279.106,49.977 274.117,54.93 268.428,54.93L251.355,54.93C246.678,54.93 242.808,58.933 242.808,63.616L242.808,79.893C242.808,84.525 246.836,87.25 251.355,88.579C256.766,90.17 261.954,90.457 268.428,88.579C272.731,87.333 276.975,84.825 276.975,79.893L276.975,73.378L259.901,73.378L259.901,71.207L285.521,71.207C290.489,71.207 292.34,67.742 294.068,62.541C295.852,57.186 295.776,52.037 294.068,45.169C292.84,40.223 290.495,36.502 285.521,36.502L279.106,36.502ZM269.504,77.721C271.276,77.721 272.711,79.173 272.711,80.969C272.711,82.77 271.276,84.236 269.504,84.236C267.738,84.236 266.296,82.77 266.296,80.969C266.296,79.173 267.738,77.721 269.504,77.721Z" style="fill:url(#_Linear2);fill-rule:nonzero;"/>
            </g>
            <rect x="212.701" y="6.814" width="94.488" height="94.488" style="fill:none;"/>
        </g>
    </g>
    <defs>
        <linearGradient id="_Linear1" x1="0" y1="0" x2="1" y2="0" gradientUnits="userSpaceOnUse" gradientTransform="matrix(39.0958,33.9615,-33.9615,39.0958,224.512,18.2333)"><stop offset="0" style="stop-color:rgb(90,159,212);stop-opacity:1"/><stop offset="1" style="stop-color:rgb(48,105,152);stop-opacity:1"/></linearGradient>
        <linearGradient id="_Linear2" x1="0" y1="0" x2="1" y2="0" gradientUnits="userSpaceOnUse" gradientTransform="matrix(-13.9611,-19.9433,19.9433,-13.9611,269.093,80.4208)"><stop offset="0" style="stop-color:rgb(255,212,59);stop-opacity:1"/><stop offset="1" style="stop-color:rgb(255,232,115);stop-opacity:1"/></linearGradient>
    </defs>
</svg>
