<?xml version="1.0" encoding="UTF-8" standalone="no"?>
<!DOCTYPE svg PUBLIC "-//W3C//DTD SVG 1.1//EN" "http://www.w3.org/Graphics/SVG/1.1/DTD/svg11.dtd">
<svg width="100%" height="100%" viewBox="0 0 521 297" version="1.1" xmlns="http://www.w3.org/2000/svg" xmlns:xlink="http://www.w3.org/1999/xlink" xml:space="preserve" xmlns:serif="http://www.serif.com/" style="fill-rule:evenodd;clip-rule:evenodd;stroke-linejoin:round;stroke-miterlimit:1.5;">
    <g id="Card-Operator-not-equal" serif:id="Card/Operator/not-equal">
        <path d="M402.559,148.751C402.559,70.526 339.051,7.018 260.827,7.018C182.603,7.018 119.094,70.526 119.094,148.751C119.094,226.975 182.603,290.483 260.827,290.483C339.051,290.483 402.559,226.975 402.559,148.751Z" style="fill:rgb(234,252,241);stroke:rgb(0,138,53);stroke-width:12.5px;"/>
        <g id="BentArrow">
            <circle cx="93.701" cy="7.018" r="3.543"/>
            <rect x="0.984" y="3.475" width="92.717" height="7.087"/>
            <path d="M132.972,35.342L128.417,40.771L91.495,9.789L96.05,4.361L132.972,35.342Z"/>
            <path d="M152.26,55.739L124.409,44.916L136.473,30.37L152.26,55.739Z"/>
        </g>
        <g id="BentArrow1" serif:id="BentArrow">
            <circle cx="93.701" cy="289.449" r="3.543"/>
            <rect x="0.984" y="285.906" width="92.717" height="7.087"/>
            <path d="M132.972,261.125L128.417,255.697L91.495,286.678L96.05,292.107L132.972,261.125Z"/>
            <path d="M152.26,240.729L124.409,251.552L136.473,266.098L152.26,240.729Z"/>
        </g>
        <g id="Arrow">
            <rect x="402.559" y="145.207" width="89.764" height="7.087"/>
            <path d="M520.669,148.751L492.323,158.199L492.323,139.302L520.669,148.751Z"/>
        </g>
        <g transform="matrix(100,0,0,100,298.777,180.051)">
        </g>
        <text x="222.877px" y="180.051px" style="font-family:'FiraSans-Bold', 'Fira Sans', sans-serif;font-weight:700;font-size:100px;">!=</text>
        <g id="Python-Logo" serif:id="Python Logo">
            <g>
                <path id="path1948" d="M260.405,18.439C257.483,18.452 254.692,18.701 252.237,19.136C245.003,20.414 243.69,23.088 243.69,28.021L243.69,34.536L260.783,34.536L260.783,36.707L237.275,36.707C232.308,36.707 227.958,39.693 226.597,45.373C225.028,51.884 224.958,55.947 226.597,62.745C227.812,67.806 230.714,71.411 235.681,71.411L241.559,71.411L241.559,63.602C241.559,57.96 246.44,52.983 252.237,52.983L269.31,52.983C274.063,52.983 277.857,49.07 277.857,44.297L277.857,28.021C277.857,23.389 273.949,19.909 269.31,19.136C266.374,18.647 263.327,18.425 260.405,18.439ZM251.161,23.678C252.927,23.678 254.368,25.143 254.368,26.945C254.368,28.741 252.927,30.193 251.161,30.193C249.389,30.193 247.954,28.741 247.954,26.945C247.954,25.143 249.389,23.678 251.161,23.678Z" style="fill:url(#_Linear1);fill-rule:nonzero;"/>
                <path id="path1950" d="M279.988,36.707L279.988,44.297C279.988,50.182 274.999,55.135 269.31,55.135L252.237,55.135C247.56,55.135 243.69,59.138 243.69,63.821L243.69,80.097C243.69,84.73 247.718,87.454 252.237,88.783C257.647,90.374 262.836,90.662 269.31,88.783C273.613,87.538 277.857,85.03 277.857,80.097L277.857,73.583L260.783,73.583L260.783,71.411L286.403,71.411C291.371,71.411 293.222,67.946 294.95,62.745C296.734,57.391 296.658,52.242 294.95,45.373C293.722,40.428 291.377,36.707 286.403,36.707L279.988,36.707ZM270.386,77.926C272.158,77.926 273.593,79.378 273.593,81.173C273.593,82.975 272.158,84.44 270.386,84.44C268.62,84.44 267.178,82.975 267.178,81.173C267.178,79.378 268.62,77.926 270.386,77.926Z" style="fill:url(#_Linear2);fill-rule:nonzero;"/>
            </g>
            <rect x="213.583" y="7.018" width="94.488" height="94.488" style="fill:none;"/>
        </g>
    </g>
    <defs>
        <linearGradient id="_Linear1" x1="0" y1="0" x2="1" y2="0" gradientUnits="userSpaceOnUse" gradientTransform="matrix(39.0958,33.9615,-33.9615,39.0958,225.394,18.438)"><stop offset="0" style="stop-color:rgb(90,159,212);stop-opacity:1"/><stop offset="1" style="stop-color:rgb(48,105,152);stop-opacity:1"/></linearGradient>
        <linearGradient id="_Linear2" x1="0" y1="0" x2="1" y2="0" gradientUnits="userSpaceOnUse" gradientTransform="matrix(-13.9611,-19.9433,19.9433,-13.9611,269.975,80.6255)"><stop offset="0" style="stop-color:rgb(255,212,59);stop-opacity:1"/><stop offset="1" style="stop-color:rgb(255,232,115);stop-opacity:1"/></linearGradient>
    </defs>
</svg>
