<?xml version="1.0" encoding="UTF-8" standalone="no"?>
<!DOCTYPE svg PUBLIC "-//W3C//DTD SVG 1.1//EN" "http://www.w3.org/Graphics/SVG/1.1/DTD/svg11.dtd">
<svg width="100%" height="100%" viewBox="0 0 520 296" version="1.1" xmlns="http://www.w3.org/2000/svg" xmlns:xlink="http://www.w3.org/1999/xlink" xml:space="preserve" xmlns:serif="http://www.serif.com/" style="fill-rule:evenodd;clip-rule:evenodd;stroke-linejoin:round;stroke-miterlimit:1.5;">
    <g id="Card-Operator-or" serif:id="Card/Operator/or">
        <path d="M401.677,147.987C401.677,69.763 338.169,6.254 259.945,6.254C181.721,6.254 118.213,69.763 118.213,147.987C118.213,226.211 181.721,289.719 259.945,289.719C338.169,289.719 401.677,226.211 401.677,147.987Z" style="fill:rgb(234,252,241);stroke:rgb(0,138,53);stroke-width:12.5px;"/>
        <g id="BentArrow">
            <circle cx="92.819" cy="6.254" r="3.543"/>
            <rect x="0.102" y="2.711" width="92.717" height="7.087"/>
            <path d="M132.091,34.579L127.535,40.007L90.613,9.026L95.168,3.597L132.091,34.579Z"/>
            <path d="M151.378,54.975L123.528,44.152L135.591,29.606L151.378,54.975Z"/>
        </g>
        <g id="BentArrow1" serif:id="BentArrow">
            <circle cx="92.819" cy="288.686" r="3.543"/>
            <rect x="0.102" y="285.142" width="92.717" height="7.087"/>
            <path d="M132.091,260.361L127.535,254.933L90.613,285.914L95.168,291.343L132.091,260.361Z"/>
            <path d="M151.378,239.965L123.528,250.788L135.591,265.334L151.378,239.965Z"/>
        </g>
        <g id="Arrow">
            <rect x="401.677" y="144.443" width="89.764" height="7.087"/>
            <path d="M519.787,147.987L491.441,157.436L491.441,138.538L519.787,147.987Z"/>
        </g>
        <g transform="matrix(83.3333,0,0,83.3333,300.987,179.287)">
        </g>
        <text x="218.903px" y="179.287px" style="font-family:'FiraSans-Bold', 'Fira Sans', sans-serif;font-weight:700;font-size:83.333px;">or</text>
        <g id="Python-Logo" serif:id="Python Logo">
            <g>
                <path id="path1948" d="M259.523,17.675C256.601,17.688 253.81,17.938 251.355,18.372C244.122,19.65 242.808,22.325 242.808,27.257L242.808,33.772L259.901,33.772L259.901,35.943L236.393,35.943C231.426,35.943 227.076,38.929 225.715,44.609C224.146,51.12 224.076,55.183 225.715,61.982C226.93,67.042 229.832,70.648 234.8,70.648L240.677,70.648L240.677,62.838C240.677,57.196 245.558,52.22 251.355,52.22L268.428,52.22C273.181,52.22 276.975,48.307 276.975,43.534L276.975,27.257C276.975,22.625 273.067,19.145 268.428,18.372C265.492,17.883 262.445,17.661 259.523,17.675ZM250.279,22.914C252.045,22.914 253.487,24.38 253.487,26.182C253.487,27.977 252.045,29.429 250.279,29.429C248.507,29.429 247.072,27.977 247.072,26.182C247.072,24.38 248.507,22.914 250.279,22.914Z" style="fill:url(#_Linear1);fill-rule:nonzero;"/>
                <path id="path1950" d="M279.106,35.943L279.106,43.534C279.106,49.418 274.117,54.371 268.428,54.371L251.355,54.371C246.678,54.371 242.808,58.374 242.808,63.057L242.808,79.334C242.808,83.966 246.836,86.691 251.355,88.02C256.766,89.611 261.954,89.898 268.428,88.02C272.731,86.774 276.975,84.266 276.975,79.334L276.975,72.819L259.901,72.819L259.901,70.648L285.521,70.648C290.489,70.648 292.34,67.183 294.068,61.982C295.852,56.627 295.776,51.478 294.068,44.609C292.84,39.664 290.495,35.943 285.521,35.943L279.106,35.943ZM269.504,77.162C271.276,77.162 272.711,78.614 272.711,80.409C272.711,82.211 271.276,83.677 269.504,83.677C267.738,83.677 266.296,82.211 266.296,80.409C266.296,78.614 267.738,77.162 269.504,77.162Z" style="fill:url(#_Linear2);fill-rule:nonzero;"/>
            </g>
            <rect x="212.701" y="6.254" width="94.488" height="94.488" style="fill:none;"/>
        </g>
    </g>
    <defs>
        <linearGradient id="_Linear1" x1="0" y1="0" x2="1" y2="0" gradientUnits="userSpaceOnUse" gradientTransform="matrix(39.0958,33.9615,-33.9615,39.0958,224.512,17.6742)"><stop offset="0" style="stop-color:rgb(90,159,212);stop-opacity:1"/><stop offset="1" style="stop-color:rgb(48,105,152);stop-opacity:1"/></linearGradient>
        <linearGradient id="_Linear2" x1="0" y1="0" x2="1" y2="0" gradientUnits="userSpaceOnUse" gradientTransform="matrix(-13.9611,-19.9433,19.9433,-13.9611,269.093,79.8618)"><stop offset="0" style="stop-color:rgb(255,212,59);stop-opacity:1"/><stop offset="1" style="stop-color:rgb(255,232,115);stop-opacity:1"/></linearGradient>
    </defs>
</svg>
