<?xml version="1.0" encoding="UTF-8" standalone="no"?>
<!DOCTYPE svg PUBLIC "-//W3C//DTD SVG 1.1//EN" "http://www.w3.org/Graphics/SVG/1.1/DTD/svg11.dtd">
<svg width="100%" height="100%" viewBox="0 0 520 297" version="1.1" xmlns="http://www.w3.org/2000/svg" xmlns:xlink="http://www.w3.org/1999/xlink" xml:space="preserve" xmlns:serif="http://www.serif.com/" style="fill-rule:evenodd;clip-rule:evenodd;stroke-linejoin:round;stroke-miterlimit:1.5;">
    <g id="Card-Operator-power" serif:id="Card/Operator/power">
        <path d="M401.795,148.073C401.795,69.849 338.287,6.341 260.063,6.341C181.839,6.341 118.331,69.849 118.331,148.073C118.331,226.298 181.839,289.806 260.063,289.806C338.287,289.806 401.795,226.298 401.795,148.073Z" style="fill:rgb(234,252,241);stroke:rgb(0,138,53);stroke-width:12.5px;"/>
        <g id="BentArrow">
            <circle cx="92.937" cy="6.341" r="3.543"/>
            <rect x="0.22" y="2.798" width="92.717" height="7.087"/>
            <path d="M132.209,34.665L127.653,40.094L90.731,9.112L95.286,3.684L132.209,34.665Z"/>
            <path d="M151.497,55.062L123.646,44.239L135.709,29.693L151.497,55.062Z"/>
        </g>
        <g id="BentArrow1" serif:id="BentArrow">
            <circle cx="92.937" cy="288.772" r="3.543"/>
            <rect x="0.22" y="285.229" width="92.717" height="7.087"/>
            <path d="M132.209,260.448L127.653,255.019L90.731,286.001L95.286,291.43L132.209,260.448Z"/>
            <path d="M151.497,240.052L123.646,250.874L135.709,265.42L151.497,240.052Z"/>
        </g>
        <g id="Arrow">
            <rect x="401.795" y="144.53" width="89.764" height="7.087"/>
            <path d="M519.906,148.073L491.559,157.522L491.559,138.625L519.906,148.073Z"/>
        </g>
        <g transform="matrix(100,0,0,100,305.363,179.373)">
        </g>
        <text x="214.763px" y="179.373px" style="font-family:'FiraSans-Bold', 'Fira Sans', sans-serif;font-weight:700;font-size:100px;">*<tspan x="260.463px " y="179.373px ">*</tspan></text>
        <g id="Python-Logo" serif:id="Python Logo">
            <g>
                <path id="path1948" d="M259.641,17.761C256.719,17.775 253.928,18.024 251.473,18.459C244.24,19.737 242.926,22.411 242.926,27.344L242.926,33.858L260.02,33.858L260.02,36.03L236.511,36.03C231.544,36.03 227.194,39.016 225.833,44.696C224.264,51.207 224.194,55.27 225.833,62.068C227.048,67.129 229.95,70.734 234.918,70.734L240.795,70.734L240.795,62.925C240.795,57.283 245.676,52.306 251.473,52.306L268.546,52.306C273.299,52.306 277.093,48.393 277.093,43.62L277.093,27.344C277.093,22.712 273.185,19.232 268.546,18.459C265.61,17.97 262.563,17.748 259.641,17.761ZM250.397,23.001C252.163,23.001 253.605,24.466 253.605,26.268C253.605,28.064 252.163,29.515 250.397,29.515C248.625,29.515 247.19,28.064 247.19,26.268C247.19,24.466 248.625,23.001 250.397,23.001Z" style="fill:url(#_Linear1);fill-rule:nonzero;"/>
                <path id="path1950" d="M279.224,36.03L279.224,43.62C279.224,49.505 274.235,54.458 268.546,54.458L251.473,54.458C246.796,54.458 242.926,58.46 242.926,63.144L242.926,79.42C242.926,84.053 246.955,86.777 251.473,88.106C256.884,89.697 262.072,89.985 268.546,88.106C272.849,86.86 277.093,84.353 277.093,79.42L277.093,72.906L260.02,72.906L260.02,70.734L285.639,70.734C290.607,70.734 292.458,67.269 294.186,62.068C295.971,56.714 295.895,51.565 294.186,44.696C292.958,39.751 290.613,36.03 285.639,36.03L279.224,36.03ZM269.622,77.249C271.394,77.249 272.829,78.701 272.829,80.496C272.829,82.298 271.394,83.763 269.622,83.763C267.856,83.763 266.415,82.298 266.415,80.496C266.415,78.701 267.856,77.249 269.622,77.249Z" style="fill:url(#_Linear2);fill-rule:nonzero;"/>
            </g>
            <rect x="212.819" y="6.341" width="94.488" height="94.488" style="fill:none;"/>
        </g>
    </g>
    <defs>
        <linearGradient id="_Linear1" x1="0" y1="0" x2="1" y2="0" gradientUnits="userSpaceOnUse" gradientTransform="matrix(39.0958,33.9615,-33.9615,39.0958,224.63,17.7608)"><stop offset="0" style="stop-color:rgb(90,159,212);stop-opacity:1"/><stop offset="1" style="stop-color:rgb(48,105,152);stop-opacity:1"/></linearGradient>
        <linearGradient id="_Linear2" x1="0" y1="0" x2="1" y2="0" gradientUnits="userSpaceOnUse" gradientTransform="matrix(-13.9611,-19.9433,19.9433,-13.9611,269.211,79.9484)"><stop offset="0" style="stop-color:rgb(255,212,59);stop-opacity:1"/><stop offset="1" style="stop-color:rgb(255,232,115);stop-opacity:1"/></linearGradient>
    </defs>
</svg>
