<?xml version="1.0" encoding="UTF-8" standalone="no"?>
<!DOCTYPE svg PUBLIC "-//W3C//DTD SVG 1.1//EN" "http://www.w3.org/Graphics/SVG/1.1/DTD/svg11.dtd">
<svg width="100%" height="100%" viewBox="0 0 520 297" version="1.1" xmlns="http://www.w3.org/2000/svg" xmlns:xlink="http://www.w3.org/1999/xlink" xml:space="preserve" xmlns:serif="http://www.serif.com/" style="fill-rule:evenodd;clip-rule:evenodd;stroke-linejoin:round;stroke-miterlimit:1.5;">
    <g id="Card-Operator-minus" serif:id="Card/Operator/minus">
        <path d="M401.795,148.869C401.795,70.644 338.287,7.136 260.063,7.136C181.839,7.136 118.331,70.644 118.331,148.869C118.331,227.093 181.839,290.601 260.063,290.601C338.287,290.601 401.795,227.093 401.795,148.869Z" style="fill:rgb(234,252,241);stroke:rgb(0,138,53);stroke-width:12.5px;"/>
        <g id="BentArrow">
            <circle cx="92.937" cy="7.136" r="3.543"/>
            <rect x="0.22" y="3.593" width="92.717" height="7.087"/>
            <path d="M132.209,35.461L127.653,40.889L90.731,9.908L95.286,4.479L132.209,35.461Z"/>
            <path d="M151.497,55.857L123.646,45.034L135.709,30.488L151.497,55.857Z"/>
        </g>
        <g id="BentArrow1" serif:id="BentArrow">
            <circle cx="92.937" cy="289.567" r="3.543"/>
            <rect x="0.22" y="286.024" width="92.717" height="7.087"/>
            <path d="M132.209,261.243L127.653,255.815L90.731,286.796L95.286,292.225L132.209,261.243Z"/>
            <path d="M151.497,240.847L123.646,251.67L135.709,266.216L151.497,240.847Z"/>
        </g>
        <g id="Arrow">
            <rect x="401.795" y="145.325" width="89.764" height="7.087"/>
            <path d="M519.906,148.869L491.559,158.317L491.559,139.42L519.906,148.869Z"/>
        </g>
        <g transform="matrix(100,0,0,100,280.413,180.169)">
        </g>
        <text x="239.713px" y="180.169px" style="font-family:'FiraSans-Bold', 'Fira Sans', sans-serif;font-weight:700;font-size:100px;">-</text>
        <g id="Python-Logo" serif:id="Python Logo">
            <g>
                <path id="path1948" d="M259.641,18.557C256.719,18.57 253.928,18.819 251.473,19.254C244.24,20.532 242.926,23.207 242.926,28.139L242.926,34.654L260.02,34.654L260.02,36.825L236.511,36.825C231.544,36.825 227.194,39.811 225.833,45.491C224.264,52.002 224.194,56.065 225.833,62.863C227.048,67.924 229.95,71.53 234.918,71.53L240.795,71.53L240.795,63.72C240.795,58.078 245.676,53.102 251.473,53.102L268.546,53.102C273.299,53.102 277.093,49.188 277.093,44.416L277.093,28.139C277.093,23.507 273.185,20.027 268.546,19.254C265.61,18.765 262.563,18.543 259.641,18.557ZM250.397,23.796C252.163,23.796 253.605,25.262 253.605,27.063C253.605,28.859 252.163,30.311 250.397,30.311C248.625,30.311 247.19,28.859 247.19,27.063C247.19,25.262 248.625,23.796 250.397,23.796Z" style="fill:url(#_Linear1);fill-rule:nonzero;"/>
                <path id="path1950" d="M279.224,36.825L279.224,44.416C279.224,50.3 274.235,55.253 268.546,55.253L251.473,55.253C246.796,55.253 242.926,59.256 242.926,63.939L242.926,80.216C242.926,84.848 246.955,87.573 251.473,88.902C256.884,90.493 262.072,90.78 268.546,88.902C272.849,87.656 277.093,85.148 277.093,80.216L277.093,73.701L260.02,73.701L260.02,71.53L285.639,71.53C290.607,71.53 292.458,68.064 294.186,62.863C295.971,57.509 295.895,52.36 294.186,45.491C292.958,40.546 290.613,36.825 285.639,36.825L279.224,36.825ZM269.622,78.044C271.394,78.044 272.829,79.496 272.829,81.291C272.829,83.093 271.394,84.559 269.622,84.559C267.856,84.559 266.415,83.093 266.415,81.291C266.415,79.496 267.856,78.044 269.622,78.044Z" style="fill:url(#_Linear2);fill-rule:nonzero;"/>
            </g>
            <rect x="212.819" y="7.136" width="94.488" height="94.488" style="fill:none;"/>
        </g>
    </g>
    <defs>
        <linearGradient id="_Linear1" x1="0" y1="0" x2="1" y2="0" gradientUnits="userSpaceOnUse" gradientTransform="matrix(39.0958,33.9615,-33.9615,39.0958,224.63,18.5561)"><stop offset="0" style="stop-color:rgb(90,159,212);stop-opacity:1"/><stop offset="1" style="stop-color:rgb(48,105,152);stop-opacity:1"/></linearGradient>
        <linearGradient id="_Linear2" x1="0" y1="0" x2="1" y2="0" gradientUnits="userSpaceOnUse" gradientTransform="matrix(-13.9611,-19.9433,19.9433,-13.9611,269.211,80.7437)"><stop offset="0" style="stop-color:rgb(255,212,59);stop-opacity:1"/><stop offset="1" style="stop-color:rgb(255,232,115);stop-opacity:1"/></linearGradient>
    </defs>
</svg>
