<?xml version="1.0" encoding="UTF-8" standalone="no"?>
<!DOCTYPE svg PUBLIC "-//W3C//DTD SVG 1.1//EN" "http://www.w3.org/Graphics/SVG/1.1/DTD/svg11.dtd">
<svg width="100%" height="100%" viewBox="0 0 520 297" version="1.1" xmlns="http://www.w3.org/2000/svg" xmlns:xlink="http://www.w3.org/1999/xlink" xml:space="preserve" xmlns:serif="http://www.serif.com/" style="fill-rule:evenodd;clip-rule:evenodd;stroke-linejoin:round;stroke-miterlimit:1.5;">
    <g id="Card-Operator-unary-plus" serif:id="Card/Operator/unary-plus">
        <path d="M401.795,148.546C401.795,70.322 338.287,6.814 260.063,6.814C181.839,6.814 118.331,70.322 118.331,148.546C118.331,226.77 181.839,290.278 260.063,290.278C338.287,290.278 401.795,226.77 401.795,148.546Z" style="fill:rgb(234,252,241);stroke:rgb(0,138,53);stroke-width:12.5px;"/>
        <g id="BentArrow">
            <rect x="0.22" y="145.003" width="89.764" height="7.087"/>
            <path d="M118.331,148.546L89.984,157.995L89.984,139.097L118.331,148.546Z"/>
        </g>
        <g id="BentArrow1" serif:id="BentArrow">
            <rect x="401.795" y="145.003" width="89.764" height="7.087"/>
            <path d="M519.906,148.546L491.559,157.995L491.559,139.097L519.906,148.546Z"/>
        </g>
        <g transform="matrix(100,0,0,100,286.613,179.846)">
        </g>
        <text x="233.513px" y="179.846px" style="font-family:'FiraSans-Bold', 'Fira Sans', sans-serif;font-weight:700;font-size:100px;">+</text>
        <g id="Python-Logo" serif:id="Python Logo">
            <g>
                <path id="path1948" d="M259.641,18.234C256.719,18.247 253.928,18.497 251.473,18.931C244.24,20.209 242.926,22.884 242.926,27.816L242.926,34.331L260.02,34.331L260.02,36.502L236.511,36.502C231.544,36.502 227.194,39.488 225.833,45.169C224.264,51.679 224.194,55.742 225.833,62.541C227.048,67.601 229.95,71.207 234.918,71.207L240.795,71.207L240.795,63.397C240.795,57.755 245.676,52.779 251.473,52.779L268.546,52.779C273.299,52.779 277.093,48.866 277.093,44.093L277.093,27.816C277.093,23.184 273.185,19.704 268.546,18.931C265.61,18.442 262.563,18.22 259.641,18.234ZM250.397,23.473C252.163,23.473 253.605,24.939 253.605,26.741C253.605,28.536 252.163,29.988 250.397,29.988C248.625,29.988 247.19,28.536 247.19,26.741C247.19,24.939 248.625,23.473 250.397,23.473Z" style="fill:url(#_Linear1);fill-rule:nonzero;"/>
                <path id="path1950" d="M279.224,36.502L279.224,44.093C279.224,49.977 274.235,54.93 268.546,54.93L251.473,54.93C246.796,54.93 242.926,58.933 242.926,63.616L242.926,79.893C242.926,84.525 246.955,87.25 251.473,88.579C256.884,90.17 262.072,90.457 268.546,88.579C272.849,87.333 277.093,84.825 277.093,79.893L277.093,73.378L260.02,73.378L260.02,71.207L285.639,71.207C290.607,71.207 292.458,67.742 294.186,62.541C295.971,57.186 295.895,52.037 294.186,45.169C292.958,40.223 290.613,36.502 285.639,36.502L279.224,36.502ZM269.622,77.721C271.394,77.721 272.829,79.173 272.829,80.969C272.829,82.77 271.394,84.236 269.622,84.236C267.856,84.236 266.415,82.77 266.415,80.969C266.415,79.173 267.856,77.721 269.622,77.721Z" style="fill:url(#_Linear2);fill-rule:nonzero;"/>
            </g>
            <rect x="212.819" y="6.814" width="94.488" height="94.488" style="fill:none;"/>
        </g>
    </g>
    <defs>
        <linearGradient id="_Linear1" x1="0" y1="0" x2="1" y2="0" gradientUnits="userSpaceOnUse" gradientTransform="matrix(39.0958,33.9615,-33.9615,39.0958,224.63,18.2333)"><stop offset="0" style="stop-color:rgb(90,159,212);stop-opacity:1"/><stop offset="1" style="stop-color:rgb(48,105,152);stop-opacity:1"/></linearGradient>
        <linearGradient id="_Linear2" x1="0" y1="0" x2="1" y2="0" gradientUnits="userSpaceOnUse" gradientTransform="matrix(-13.9611,-19.9433,19.9433,-13.9611,269.211,80.4208)"><stop offset="0" style="stop-color:rgb(255,212,59);stop-opacity:1"/><stop offset="1" style="stop-color:rgb(255,232,115);stop-opacity:1"/></linearGradient>
    </defs>
</svg>
