<?xml version="1.0" encoding="UTF-8" standalone="no"?>
<!DOCTYPE svg PUBLIC "-//W3C//DTD SVG 1.1//EN" "http://www.w3.org/Graphics/SVG/1.1/DTD/svg11.dtd">
<svg width="100%" height="100%" viewBox="0 0 710 840" version="1.1" xmlns="http://www.w3.org/2000/svg" xmlns:xlink="http://www.w3.org/1999/xlink" xml:space="preserve" xmlns:serif="http://www.serif.com/" style="fill-rule:evenodd;clip-rule:evenodd;stroke-linejoin:round;stroke-miterlimit:1.5;">
    <g id="Card-Function-ellipse" serif:id="Card/Function/ellipse">
        <path d="M591.417,124.995C591.417,59.808 538.494,6.884 473.307,6.884L237.087,6.884C171.9,6.884 118.976,59.808 118.976,124.995L118.976,715.546C118.976,780.733 171.9,833.656 237.087,833.656L473.307,833.656C538.494,833.656 591.417,780.733 591.417,715.546L591.417,124.995Z" style="fill:rgb(252,234,235);stroke:rgb(212,32,39);stroke-width:12.5px;"/>
        <g id="BentArrow">
            <rect x="0.866" y="168.695" width="89.764" height="7.087"/>
            <path d="M118.976,172.239L90.63,181.688L90.63,162.79L118.976,172.239Z"/>
        </g>
        <g id="BentArrow1" serif:id="BentArrow">
            <rect x="591.417" y="298.617" width="89.764" height="7.087"/>
            <path d="M709.528,302.16L681.181,311.609L681.181,292.711L709.528,302.16Z"/>
        </g>
        <g id="BentArrow2" serif:id="BentArrow">
            <rect x="0.866" y="428.538" width="89.764" height="7.087"/>
            <path d="M118.976,432.081L90.63,441.53L90.63,422.632L118.976,432.081Z"/>
        </g>
        <g id="BentArrow3" serif:id="BentArrow">
            <rect x="0.866" y="688.38" width="89.764" height="7.087"/>
            <path d="M118.976,691.924L90.63,701.373L90.63,682.475L118.976,691.924Z"/>
        </g>
        <g transform="matrix(75,0,0,75,468.522,231.294)">
        </g>
        <text x="239.022px" y="231.294px" style="font-family:'FiraSans-Bold', 'Fira Sans', sans-serif;font-weight:700;font-size:75px;">ellipse</text>
        <g transform="matrix(75,0,0,75,466.984,326.982)">
        </g>
        <text x="240.559px" y="326.982px" style="font-family:'FiraSans-Regular', 'Fira Sans', sans-serif;font-size:75px;">ellipse</text>
        <g transform="matrix(75,0,0,75,465.597,421.47)">
        </g>
        <text x="249.447px" y="421.47px" style="font-family:'FiraSans-Regular', 'Fira Sans', sans-serif;font-size:75px;">ellis<tspan x="389.697px " y="421.47px ">s</tspan>e</text>
        <path d="M286.314,536.811L276.939,546.186L286.314,555.561" style="fill:none;stroke:black;stroke-width:6.25px;stroke-linecap:round;stroke-linejoin:miter;stroke-miterlimit:10;"/>
        <path d="M447.702,536.811L457.077,546.186L447.702,555.561" style="fill:none;stroke:black;stroke-width:6.25px;stroke-linecap:round;stroke-linejoin:miter;stroke-miterlimit:10;"/>
        <path d="M276.939,546.186L457.077,546.186" style="fill:none;stroke:black;stroke-width:6.25px;stroke-linecap:round;"/>
        <path d="M239.523,678.129L248.898,687.504L258.273,678.129" style="fill:none;stroke:black;stroke-width:6.25px;stroke-linecap:round;stroke-linejoin:miter;stroke-miterlimit:10;"/>
        <path d="M239.523,583.603L248.898,574.228L258.273,583.603" style="fill:none;stroke:black;stroke-width:6.25px;stroke-linecap:round;stroke-linejoin:miter;stroke-miterlimit:10;"/>
        <path d="M248.898,687.504L248.898,574.228" style="fill:none;stroke:black;stroke-width:6.25px;stroke-linecap:round;"/>
        <ellipse cx="367.008" cy="631.867" rx="94.488" ry="60.056" style="fill:rgb(106,189,69);"/>
        <g id="PyTamaro-Logo" serif:id="PyTamaro Logo">
            <rect x="307.953" y="6.884" width="94.488" height="94.488" style="fill:none;"/>
            <g>
                <path d="M355.242,25.192L385.928,78.341L324.556,78.341L355.242,25.192Z" style="fill:rgb(212,32,39);"/>
                <path d="M385.917,78.341L370.574,51.766L401.26,51.766L385.917,78.341Z" style="fill:rgb(17,139,202);"/>
                <path d="M324.556,78.341L309.213,51.766L339.899,51.766L324.556,78.341Z" style="fill:rgb(17,139,202);"/>
            </g>
        </g>
    </g>
</svg>
