<?xml version="1.0" encoding="UTF-8" standalone="no"?>
<!DOCTYPE svg PUBLIC "-//W3C//DTD SVG 1.1//EN" "http://www.w3.org/Graphics/SVG/1.1/DTD/svg11.dtd">
<svg width="100%" height="100%" viewBox="0 0 710 581" version="1.1" xmlns="http://www.w3.org/2000/svg" xmlns:xlink="http://www.w3.org/1999/xlink" xml:space="preserve" xmlns:serif="http://www.serif.com/" style="fill-rule:evenodd;clip-rule:evenodd;stroke-linejoin:round;stroke-miterlimit:1.5;">
    <g id="Card-Function-max" serif:id="Card/Function/max">
        <path d="M591.063,125.317C591.063,60.131 538.14,7.207 472.953,7.207L236.732,7.207C171.545,7.207 118.622,60.131 118.622,125.317L118.622,456.026C118.622,521.213 171.545,574.136 236.732,574.136L472.953,574.136C538.14,574.136 591.063,521.213 591.063,456.026L591.063,125.317Z" style="fill:rgb(252,234,235);stroke:rgb(212,32,39);stroke-width:12.5px;"/>
        <g id="BentArrow">
            <rect x="0.512" y="169.018" width="89.764" height="7.087"/>
            <path d="M118.622,172.562L90.276,182.01L90.276,163.113L118.622,172.562Z"/>
        </g>
        <g id="BentArrow1" serif:id="BentArrow">
            <rect x="0.512" y="405.239" width="89.764" height="7.087"/>
            <path d="M118.622,408.782L90.276,418.231L90.276,399.333L118.622,408.782Z"/>
        </g>
        <g id="BentArrow2" serif:id="BentArrow">
            <rect x="591.063" y="287.129" width="89.764" height="7.087"/>
            <path d="M709.173,290.672L680.827,300.121L680.827,281.223L709.173,290.672Z"/>
        </g>
        <g transform="matrix(75,0,0,75,426.093,314.294)">
        </g>
        <text x="283.218px" y="314.294px" style="font-family:'FiraSans-Bold', 'Fira Sans', sans-serif;font-weight:700;font-size:75px;">max</text>
        <g id="Python-Logo" serif:id="Python Logo">
            <g>
                <path id="path1948" d="M354.421,18.628C351.498,18.641 348.708,18.89 346.253,19.325C339.019,20.603 337.706,23.277 337.706,28.21L337.706,34.725L354.799,34.725L354.799,36.896L331.291,36.896C326.323,36.896 321.973,39.882 320.613,45.562C319.043,52.073 318.974,56.136 320.613,62.934C321.828,67.995 324.729,71.6 329.697,71.6L335.574,71.6L335.574,63.791C335.574,58.149 340.456,53.172 346.253,53.172L363.326,53.172C368.078,53.172 371.872,49.259 371.872,44.486L371.872,28.21C371.872,23.578 367.964,20.098 363.326,19.325C360.389,18.836 357.343,18.614 354.421,18.628ZM345.177,23.867C346.942,23.867 348.384,25.332 348.384,27.134C348.384,28.93 346.942,30.382 345.177,30.382C343.405,30.382 341.969,28.93 341.969,27.134C341.969,25.332 343.405,23.867 345.177,23.867Z" style="fill:url(#_Linear1);fill-rule:nonzero;"/>
                <path id="path1950" d="M374.004,36.896L374.004,44.486C374.004,50.371 369.015,55.324 363.326,55.324L346.253,55.324C341.576,55.324 337.706,59.327 337.706,64.01L337.706,80.286C337.706,84.919 341.734,87.643 346.253,88.972C351.663,90.563 356.852,90.851 363.326,88.972C367.629,87.727 371.872,85.219 371.872,80.286L371.872,73.772L354.799,73.772L354.799,71.6L380.419,71.6C385.387,71.6 387.238,68.135 388.965,62.934C390.75,57.58 390.674,52.431 388.965,45.562C387.738,40.617 385.393,36.896 380.419,36.896L374.004,36.896ZM364.402,78.115C366.173,78.115 367.609,79.567 367.609,81.362C367.609,83.164 366.173,84.629 364.402,84.629C362.636,84.629 361.194,83.164 361.194,81.362C361.194,79.567 362.636,78.115 364.402,78.115Z" style="fill:url(#_Linear2);fill-rule:nonzero;"/>
            </g>
            <rect x="307.598" y="7.207" width="94.488" height="94.488" style="fill:none;"/>
        </g>
    </g>
    <defs>
        <linearGradient id="_Linear1" x1="0" y1="0" x2="1" y2="0" gradientUnits="userSpaceOnUse" gradientTransform="matrix(39.0958,33.9615,-33.9615,39.0958,319.409,18.627)"><stop offset="0" style="stop-color:rgb(90,159,212);stop-opacity:1"/><stop offset="1" style="stop-color:rgb(48,105,152);stop-opacity:1"/></linearGradient>
        <linearGradient id="_Linear2" x1="0" y1="0" x2="1" y2="0" gradientUnits="userSpaceOnUse" gradientTransform="matrix(-13.9611,-19.9433,19.9433,-13.9611,363.991,80.8145)"><stop offset="0" style="stop-color:rgb(255,212,59);stop-opacity:1"/><stop offset="1" style="stop-color:rgb(255,232,115);stop-opacity:1"/></linearGradient>
    </defs>
</svg>
