<?xml version="1.0" encoding="UTF-8" standalone="no"?>
<!DOCTYPE svg PUBLIC "-//W3C//DTD SVG 1.1//EN" "http://www.w3.org/Graphics/SVG/1.1/DTD/svg11.dtd">
<svg width="100%" height="100%" viewBox="0 0 710 581" version="1.1" xmlns="http://www.w3.org/2000/svg" xmlns:xlink="http://www.w3.org/1999/xlink" xml:space="preserve" xmlns:serif="http://www.serif.com/" style="fill-rule:evenodd;clip-rule:evenodd;stroke-linejoin:round;stroke-miterlimit:1.5;">
    <g id="Card-Function-pin" serif:id="Card/Function/pin">
        <path d="M591.299,125.113C591.299,59.926 538.376,7.003 473.189,7.003L236.969,7.003C171.782,7.003 118.858,59.926 118.858,125.113L118.858,455.821C118.858,521.008 171.782,573.932 236.969,573.932L473.189,573.932C538.376,573.932 591.299,521.008 591.299,455.821L591.299,125.113Z" style="fill:rgb(252,234,235);stroke:rgb(212,32,39);stroke-width:12.5px;"/>
        <g id="BentArrow">
            <rect x="0.748" y="168.814" width="89.764" height="7.087"/>
            <path d="M118.858,172.357L90.512,181.806L90.512,162.908L118.858,172.357Z"/>
        </g>
        <g id="BentArrow1" serif:id="BentArrow">
            <rect x="0.748" y="428.656" width="89.764" height="7.087"/>
            <path d="M118.858,432.199L90.512,441.648L90.512,422.751L118.858,432.199Z"/>
        </g>
        <g id="BentArrow2" serif:id="BentArrow">
            <rect x="591.299" y="298.735" width="89.764" height="7.087"/>
            <path d="M709.409,302.278L681.063,311.727L681.063,292.829L709.409,302.278Z"/>
        </g>
        <g transform="matrix(75,0,0,75,408.254,231.412)">
        </g>
        <text x="299.054px" y="231.412px" style="font-family:'FiraSans-Bold', 'Fira Sans', sans-serif;font-weight:700;font-size:75px;">pin</text>
        <g transform="matrix(75,0,0,75,249.104,327.1)">
        </g>
        <g transform="matrix(75,0,0,75,272.518,327.1)">
        </g>
        <g transform="matrix(75,0,0,75,458.204,327.1)">
        </g>
        <text x="249.104px" y="327.1px" style="font-family:'FiraSans-Regular', 'Fira Sans', sans-serif;font-size:75px;">ﬁxier<tspan x="417.329px " y="327.1px ">e</tspan></text>
        <g transform="matrix(75,0,0,75,281.166,421.588)">
        </g>
        <g transform="matrix(75,0,0,75,304.581,421.588)">
        </g>
        <g transform="matrix(75,0,0,75,433.641,421.588)">
        </g>
        <text x="281.166px" y="421.588px" style="font-family:'FiraSans-Regular', 'Fira Sans', sans-serif;font-size:75px;">ﬁs<tspan x="358.566px 392.841px " y="421.588px 421.588px ">sa</tspan></text>
        <g id="PyTamaro-Logo" serif:id="PyTamaro Logo">
            <rect x="307.735" y="7.003" width="94.488" height="94.488" style="fill:none;"/>
            <g>
                <path d="M355.024,25.31L385.71,78.459L324.338,78.459L355.024,25.31Z" style="fill:rgb(212,32,39);"/>
                <path d="M385.699,78.459L370.356,51.884L401.042,51.884L385.699,78.459Z" style="fill:rgb(17,139,202);"/>
                <path d="M324.338,78.459L308.995,51.884L339.681,51.884L324.338,78.459Z" style="fill:rgb(17,139,202);"/>
            </g>
        </g>
    </g>
</svg>
